<svg xmlns="http://www.w3.org/2000/svg" xmlns:xlink="http://www.w3.org/1999/xlink" width="1000" zoomAndPan="magnify" viewBox="0 0 750 525.000007" height="700" preserveAspectRatio="xMidYMid meet" version="1.0"><defs><g/><clipPath id="78dfbf5db7"><path d="M 13.207031 5.636719 L 737.082031 5.636719 L 737.082031 358.214844 L 13.207031 358.214844 Z M 13.207031 5.636719 " clip-rule="nonzero"/></clipPath><clipPath id="7c9b0f3b61"><path d="M 473 355 L 497 355 L 497 358.214844 L 473 358.214844 Z M 473 355 " clip-rule="nonzero"/></clipPath><clipPath id="69bf442939"><path d="M 253 356 L 277 356 L 277 358.214844 L 253 358.214844 Z M 253 356 " clip-rule="nonzero"/></clipPath><clipPath id="c346057dad"><path d="M 12.917969 357.480469 L 727.203125 357.480469 L 727.203125 369.207031 L 12.917969 369.207031 Z M 12.917969 357.480469 " clip-rule="nonzero"/></clipPath><clipPath id="d5602b8f6d"><path d="M 0.917969 0.480469 L 715.203125 0.480469 L 715.203125 12.207031 L 0.917969 12.207031 Z M 0.917969 0.480469 " clip-rule="nonzero"/></clipPath><clipPath id="b2538907e1"><rect x="0" width="716" y="0" height="13"/></clipPath><clipPath id="e1d3a47018"><path d="M 12.917969 512.714844 L 737.082031 512.714844 L 737.082031 524 L 12.917969 524 Z M 12.917969 512.714844 " clip-rule="nonzero"/></clipPath><clipPath id="4ad0346c9d"><path d="M 0.917969 0.714844 L 725.082031 0.714844 L 725.082031 12 L 0.917969 12 Z M 0.917969 0.714844 " clip-rule="nonzero"/></clipPath><clipPath id="a7f17cbfa6"><rect x="0" width="726" y="0" height="12"/></clipPath></defs><g clip-path="url(#78dfbf5db7)"><path fill="#FFF" d="M 737.082031 386.523438 L 718.273438 357.089844 L 676.714844 336.585938 C 675.804688 327.441406 674.480469 318.351562 672.742188 309.328125 L 710.660156 294.257812 L 722.105469 300.699219 L 730.125 297.90625 L 704.089844 269.015625 L 658.730469 259.613281 C 655.347656 250.78125 651.5625 242.125 647.371094 233.644531 L 680.058594 209.257812 L 692.757812 212.449219 L 699.75 207.628906 L 667.140625 186.605469 L 620.484375 189.335938 C 615.027344 181.816406 609.238281 174.566406 603.117188 167.578125 L 628.332031 135.097656 L 641.394531 134.835938 L 646.851562 128.324219 L 609.917969 116.558594 L 565.851562 131.535156 C 558.757812 125.753906 551.417969 120.300781 543.832031 115.179688 L 560.03125 77.601562 L 572.6875 74.054688 L 576.386719 66.40625 L 537.511719 64.441406 L 498.363281 90.191406 C 489.828125 86.414062 481.136719 83.039062 472.289062 80.066406 L 478.214844 39.300781 L 489.457031 32.5625 L 490.992188 24.207031 L 453.050781 32.464844 L 421.714844 67.738281 C 412.636719 66.316406 403.515625 65.308594 394.351562 64.710938 L 389.171875 23.609375 L 398.222656 14.171875 L 397.476562 5.710938 L 363 23.570312 L 342.230469 65.875 C 333.265625 66.828125 324.363281 68.183594 315.515625 69.929688 L 300 31.417969 L 306.421875 19.945312 L 303.59375 11.9375 L 274.71875 38.109375 L 265.445312 84.226562 C 256.820312 87.609375 248.363281 91.375 240.082031 95.527344 L 215.03125 62.464844 L 218.128906 49.753906 L 213.253906 42.800781 L 192.480469 75.488281 L 195.535156 122.914062 C 188.242188 128.277344 181.207031 133.957031 174.421875 139.949219 L 141.375 114.394531 L 141.035156 101.347656 L 134.511719 95.910156 L 123.003906 132.785156 L 138.246094 177.75 C 132.558594 184.804688 127.195312 192.097656 122.160156 199.628906 L 83.6875 183.582031 L 79.984375 171.066406 L 72.273438 167.507812 L 70.679688 206.140625 L 97.109375 245.519531 C 93.496094 253.847656 90.261719 262.316406 87.410156 270.933594 L 45.84375 265.632812 L 39 254.519531 L 30.621094 253.132812 L 39.171875 290.917969 L 75.214844 321.882812 C 73.859375 330.765625 72.902344 339.695312 72.34375 348.664062 L 30.847656 353.859375 L 21.371094 344.761719 L 12.910156 345.5 L 30.902344 380.066406 L 73.648438 400.992188 C 74.621094 409.863281 75.980469 418.671875 77.730469 427.421875 L 38.96875 443.042969 L 27.464844 436.628906 L 19.796875 441.109375 L 45.753906 468.296875 L 92.136719 477.558594 C 95.519531 486.148438 99.285156 494.5625 103.4375 502.808594 L 70.335938 527.894531 L 57.601562 524.808594 L 50.644531 529.683594 L 83.445312 550.394531 L 130.785156 547.101562 C 136.210938 554.457031 141.957031 561.554688 148.027344 568.390625 L 122.546875 601.355469 L 109.476562 601.714844 L 104.035156 608.238281 L 140.996094 619.664062 L 185.640625 604.273438 C 192.808594 610.035156 200.222656 615.460938 207.886719 620.546875 L 191.941406 658.785156 L 179.410156 662.511719 L 175.851562 670.222656 L 214.546875 671.710938 L 253.605469 645.4375 C 262.042969 649.085938 270.632812 652.347656 279.367188 655.214844 L 274.132812 696.316406 L 263.011719 703.191406 L 261.625 711.570312 L 299.441406 702.898438 L 330.035156 667.203125 C 338.988281 668.550781 347.988281 669.496094 357.027344 670.039062 L 362.410156 711.003906 L 353.3125 720.507812 L 354.046875 728.972656 L 388.617188 710.851562 L 409.226562 668.632812 C 418.273438 667.617188 427.253906 666.199219 436.171875 664.378906 L 451.566406 702.566406 L 446.605469 713.800781 L 449.632812 721.734375 L 477.957031 695.3125 L 486.339844 649.71875 C 494.878906 646.351562 503.25 642.605469 511.449219 638.480469 L 536.296875 670.875 L 533.230469 683.636719 L 538.101562 690.59375 L 558.757812 657.691406 L 555.453125 611.074219 C 562.898438 605.550781 570.078125 599.695312 576.984375 593.511719 L 609.570312 618.394531 L 609.949219 631.488281 L 616.472656 636.925781 L 627.8125 599.878906 L 612.578125 555.871094 C 618.425781 548.53125 623.917969 540.933594 629.0625 533.085938 L 666.742188 548.789062 L 670.496094 561.335938 L 678.207031 564.894531 L 679.589844 526.136719 L 653.539062 487.851562 C 657.273438 479.160156 660.589844 470.316406 663.496094 461.3125 L 703.96875 466.460938 L 710.871094 477.589844 L 719.25 478.972656 L 710.457031 441.125 L 675.09375 410.882812 C 676.1875 403.480469 677.003906 396.050781 677.546875 388.585938 L 718.691406 380.78125 L 728.707031 387.894531 L 737.085938 386.519531 Z M 655.671875 367.34375 C 655.671875 371.9375 655.558594 376.527344 655.332031 381.117188 C 655.109375 385.703125 654.769531 390.28125 654.320312 394.855469 C 653.871094 399.425781 653.308594 403.984375 652.632812 408.527344 C 651.960938 413.070312 651.175781 417.59375 650.277344 422.097656 C 649.382812 426.605469 648.375 431.085938 647.261719 435.539062 C 646.144531 439.996094 644.917969 444.421875 643.585938 448.816406 C 642.253906 453.214844 640.8125 457.574219 639.265625 461.898438 C 637.71875 466.222656 636.066406 470.507812 634.308594 474.75 C 632.550781 478.996094 630.6875 483.191406 628.722656 487.34375 C 626.761719 491.496094 624.695312 495.597656 622.53125 499.648438 C 620.363281 503.699219 618.101562 507.695312 615.742188 511.636719 C 613.378906 515.578125 610.921875 519.457031 608.371094 523.273438 C 605.816406 527.09375 603.175781 530.847656 600.4375 534.539062 C 597.703125 538.226562 594.875 541.847656 591.960938 545.398438 C 589.046875 548.949219 586.050781 552.425781 582.964844 555.828125 C 579.878906 559.234375 576.714844 562.558594 573.464844 565.804688 C 570.21875 569.054688 566.890625 572.222656 563.488281 575.304688 C 560.085938 578.390625 556.609375 581.390625 553.058594 584.304688 C 549.507812 587.21875 545.886719 590.042969 542.195312 592.777344 C 538.507812 595.515625 534.753906 598.160156 530.933594 600.710938 C 527.113281 603.261719 523.234375 605.71875 519.296875 608.082031 C 515.355469 610.441406 511.359375 612.707031 507.308594 614.871094 C 503.257812 617.035156 499.15625 619.101562 495.003906 621.066406 C 490.851562 623.03125 486.652344 624.890625 482.410156 626.648438 C 478.167969 628.40625 473.882812 630.058594 469.558594 631.605469 C 465.230469 633.152344 460.871094 634.59375 456.476562 635.925781 C 452.082031 637.261719 447.65625 638.484375 443.199219 639.601562 C 438.742188 640.71875 434.261719 641.722656 429.757812 642.621094 C 425.253906 643.515625 420.730469 644.300781 416.183594 644.976562 C 411.640625 645.648438 407.085938 646.210938 402.511719 646.660156 C 397.941406 647.113281 393.363281 647.449219 388.773438 647.675781 C 384.1875 647.898438 379.597656 648.011719 375.003906 648.011719 C 370.410156 648.011719 365.820312 647.898438 361.230469 647.675781 C 356.644531 647.449219 352.0625 647.113281 347.492188 646.660156 C 342.921875 646.210938 338.363281 645.648438 333.820312 644.976562 C 329.277344 644.300781 324.75 643.515625 320.246094 642.621094 C 315.742188 641.722656 311.261719 640.71875 306.804688 639.601562 C 302.351562 638.484375 297.925781 637.261719 293.527344 635.925781 C 289.132812 634.59375 284.773438 633.152344 280.449219 631.605469 C 276.125 630.058594 271.839844 628.40625 267.59375 626.648438 C 263.351562 624.890625 259.152344 623.03125 255 621.066406 C 250.847656 619.101562 246.746094 617.035156 242.695312 614.871094 C 238.644531 612.707031 234.648438 610.441406 230.710938 608.082031 C 226.769531 605.71875 222.890625 603.261719 219.070312 600.710938 C 215.25 598.160156 211.496094 595.515625 207.808594 592.777344 C 204.117188 590.042969 200.5 587.21875 196.949219 584.304688 C 193.398438 581.390625 189.921875 578.390625 186.515625 575.304688 C 183.113281 572.222656 179.789062 569.054688 176.539062 565.804688 C 173.292969 562.558594 170.125 559.234375 167.039062 555.828125 C 163.957031 552.425781 160.957031 548.949219 158.042969 545.398438 C 155.128906 541.847656 152.304688 538.226562 149.566406 534.539062 C 146.832031 530.847656 144.1875 527.09375 141.636719 523.273438 C 139.082031 519.457031 136.625 515.578125 134.265625 511.636719 C 131.902344 507.695312 129.640625 503.699219 127.472656 499.648438 C 125.308594 495.597656 123.246094 491.496094 121.28125 487.34375 C 119.316406 483.191406 117.457031 478.996094 115.699219 474.75 C 113.941406 470.507812 112.289062 466.222656 110.742188 461.898438 C 109.191406 457.574219 107.753906 453.214844 106.417969 448.816406 C 105.085938 444.421875 103.859375 439.996094 102.746094 435.539062 C 101.628906 431.085938 100.621094 426.605469 99.726562 422.097656 C 98.832031 417.59375 98.046875 413.070312 97.371094 408.527344 C 96.699219 403.984375 96.136719 399.425781 95.683594 394.855469 C 95.234375 390.28125 94.898438 385.703125 94.671875 381.117188 C 94.445312 376.527344 94.332031 371.9375 94.332031 367.34375 C 94.332031 362.75 94.445312 358.160156 94.671875 353.570312 C 94.898438 348.984375 95.234375 344.40625 95.683594 339.832031 C 96.136719 335.261719 96.699219 330.703125 97.371094 326.160156 C 98.046875 321.617188 98.832031 317.09375 99.726562 312.585938 C 100.621094 308.082031 101.628906 303.601562 102.746094 299.148438 C 103.859375 294.691406 105.085938 290.265625 106.417969 285.871094 C 107.753906 281.472656 109.191406 277.113281 110.742188 272.789062 C 112.289062 268.464844 113.941406 264.179688 115.699219 259.9375 C 117.457031 255.691406 119.316406 251.496094 121.28125 247.34375 C 123.246094 243.191406 125.308594 239.089844 127.472656 235.039062 C 129.640625 230.984375 131.902344 226.992188 134.265625 223.050781 C 136.625 219.109375 139.082031 215.230469 141.636719 211.414062 C 144.1875 207.59375 146.832031 203.839844 149.566406 200.148438 C 152.304688 196.460938 155.128906 192.839844 158.042969 189.289062 C 160.957031 185.738281 163.957031 182.261719 167.039062 178.859375 C 170.125 175.453125 173.292969 172.128906 176.539062 168.878906 C 179.789062 165.632812 183.113281 162.464844 186.515625 159.382812 C 189.921875 156.296875 193.398438 153.296875 196.949219 150.382812 C 200.5 147.46875 204.117188 144.644531 207.808594 141.910156 C 211.496094 139.171875 215.253906 136.527344 219.070312 133.976562 C 222.890625 131.425781 226.769531 128.96875 230.710938 126.605469 C 234.648438 124.246094 238.644531 121.980469 242.695312 119.816406 C 246.746094 117.652344 250.847656 115.585938 255 113.621094 C 259.152344 111.65625 263.351562 109.796875 267.59375 108.039062 C 271.839844 106.28125 276.125 104.628906 280.449219 103.082031 C 284.773438 101.535156 289.132812 100.09375 293.527344 98.761719 C 297.925781 97.425781 302.351562 96.203125 306.804688 95.085938 C 311.261719 93.96875 315.742188 92.964844 320.246094 92.066406 C 324.75 91.171875 329.277344 90.386719 333.820312 89.710938 C 338.363281 89.039062 342.921875 88.476562 347.492188 88.027344 C 352.0625 87.574219 356.644531 87.238281 361.230469 87.011719 C 365.820312 86.789062 370.410156 86.675781 375.003906 86.675781 C 379.597656 86.675781 384.1875 86.789062 388.773438 87.011719 C 393.363281 87.238281 397.941406 87.574219 402.511719 88.027344 C 407.085938 88.476562 411.640625 89.039062 416.183594 89.710938 C 420.730469 90.386719 425.253906 91.171875 429.757812 92.066406 C 434.261719 92.964844 438.742188 93.96875 443.199219 95.085938 C 447.65625 96.203125 452.082031 97.425781 456.476562 98.761719 C 460.871094 100.09375 465.230469 101.535156 469.558594 103.082031 C 473.882812 104.628906 478.167969 106.28125 482.410156 108.039062 C 486.652344 109.796875 490.851562 111.65625 495.003906 113.621094 C 499.15625 115.585938 503.257812 117.652344 507.308594 119.816406 C 511.359375 121.980469 515.355469 124.246094 519.296875 126.605469 C 523.234375 128.96875 527.113281 131.425781 530.933594 133.976562 C 534.753906 136.527344 538.507812 139.171875 542.195312 141.910156 C 545.886719 144.644531 549.507812 147.46875 553.058594 150.382812 C 556.609375 153.296875 560.085938 156.296875 563.488281 159.382812 C 566.890625 162.464844 570.21875 165.632812 573.464844 168.878906 C 576.714844 172.128906 579.878906 175.453125 582.964844 178.859375 C 586.050781 182.261719 589.046875 185.738281 591.960938 189.289062 C 594.875 192.839844 597.703125 196.460938 600.4375 200.148438 C 603.175781 203.839844 605.816406 207.59375 608.371094 211.414062 C 610.921875 215.230469 613.378906 219.109375 615.742188 223.050781 C 618.101562 226.992188 620.363281 230.984375 622.53125 235.039062 C 624.695312 239.089844 626.761719 243.191406 628.722656 247.34375 C 630.6875 251.496094 632.550781 255.691406 634.308594 259.9375 C 636.066406 264.179688 637.71875 268.464844 639.265625 272.789062 C 640.8125 277.113281 642.253906 281.472656 643.585938 285.871094 C 644.917969 290.265625 646.144531 294.691406 647.261719 299.148438 C 648.375 303.601562 649.382812 308.082031 650.277344 312.589844 C 651.175781 317.09375 651.960938 321.617188 652.632812 326.160156 C 653.308594 330.703125 653.871094 335.261719 654.320312 339.832031 C 654.769531 344.40625 655.109375 348.984375 655.332031 353.570312 C 655.558594 358.160156 655.671875 362.75 655.671875 367.34375 Z M 633.5625 367.34375 C 633.5625 363.113281 633.457031 358.882812 633.25 354.65625 C 633.042969 350.429688 632.730469 346.210938 632.316406 342 C 631.902344 337.789062 631.382812 333.589844 630.761719 329.40625 C 630.140625 325.21875 629.417969 321.050781 628.59375 316.902344 C 627.769531 312.75 626.839844 308.625 625.8125 304.519531 C 624.785156 300.414062 623.65625 296.339844 622.429688 292.289062 C 621.199219 288.238281 619.871094 284.222656 618.445312 280.238281 C 617.023438 276.253906 615.5 272.308594 613.878906 268.398438 C 612.261719 264.488281 610.546875 260.621094 608.738281 256.796875 C 606.929688 252.972656 605.027344 249.191406 603.03125 245.460938 C 601.035156 241.730469 598.953125 238.046875 596.777344 234.417969 C 594.601562 230.789062 592.335938 227.214844 589.988281 223.699219 C 587.636719 220.179688 585.199219 216.71875 582.679688 213.320312 C 580.160156 209.921875 577.554688 206.589844 574.871094 203.316406 C 572.1875 200.046875 569.425781 196.84375 566.582031 193.707031 C 563.742188 190.574219 560.824219 187.507812 557.832031 184.515625 C 554.839844 181.523438 551.777344 178.609375 548.640625 175.765625 C 545.503906 172.925781 542.300781 170.160156 539.03125 167.476562 C 535.761719 164.792969 532.425781 162.191406 529.027344 159.667969 C 525.628906 157.148438 522.167969 154.710938 518.652344 152.363281 C 515.132812 150.011719 511.558594 147.746094 507.929688 145.574219 C 504.300781 143.398438 500.621094 141.3125 496.886719 139.316406 C 493.15625 137.324219 489.378906 135.421875 485.550781 133.609375 C 481.726562 131.800781 477.859375 130.085938 473.949219 128.46875 C 470.039062 126.847656 466.09375 125.328125 462.109375 123.902344 C 458.125 122.476562 454.109375 121.148438 450.058594 119.921875 C 446.011719 118.691406 441.933594 117.5625 437.828125 116.535156 C 433.722656 115.507812 429.597656 114.582031 425.445312 113.753906 C 421.296875 112.929688 417.128906 112.207031 412.941406 111.585938 C 408.757812 110.964844 404.558594 110.445312 400.347656 110.03125 C 396.136719 109.617188 391.917969 109.304688 387.691406 109.097656 C 383.464844 108.890625 379.234375 108.785156 375.003906 108.785156 C 370.773438 108.785156 366.542969 108.890625 362.316406 109.097656 C 358.089844 109.304688 353.871094 109.617188 349.660156 110.03125 C 345.449219 110.445312 341.253906 110.964844 337.066406 111.585938 C 332.882812 112.207031 328.714844 112.929688 324.5625 113.753906 C 320.414062 114.582031 316.285156 115.507812 312.179688 116.535156 C 308.074219 117.5625 304 118.691406 299.949219 119.921875 C 295.902344 121.148438 291.882812 122.476562 287.898438 123.902344 C 283.914062 125.328125 279.96875 126.847656 276.058594 128.46875 C 272.148438 130.085938 268.28125 131.800781 264.457031 133.609375 C 260.632812 135.421875 256.855469 137.324219 253.121094 139.316406 C 249.390625 141.3125 245.710938 143.398438 242.082031 145.574219 C 238.449219 147.746094 234.875 150.011719 231.359375 152.363281 C 227.839844 154.710938 224.382812 157.148438 220.984375 159.667969 C 217.585938 162.191406 214.25 164.792969 210.976562 167.476562 C 207.707031 170.160156 204.503906 172.925781 201.367188 175.765625 C 198.234375 178.609375 195.167969 181.523438 192.175781 184.515625 C 189.183594 187.507812 186.269531 190.574219 183.425781 193.707031 C 180.585938 196.84375 177.820312 200.046875 175.136719 203.316406 C 172.453125 206.589844 169.851562 209.921875 167.332031 213.320312 C 164.808594 216.71875 162.375 220.179688 160.023438 223.699219 C 157.671875 227.214844 155.410156 230.789062 153.234375 234.417969 C 151.058594 238.046875 148.972656 241.730469 146.976562 245.460938 C 144.984375 249.191406 143.082031 252.972656 141.273438 256.796875 C 139.464844 260.621094 137.75 264.488281 136.128906 268.398438 C 134.511719 272.308594 132.988281 276.253906 131.5625 280.238281 C 130.136719 284.222656 128.808594 288.238281 127.582031 292.289062 C 126.351562 296.339844 125.226562 300.414062 124.195312 304.519531 C 123.167969 308.625 122.242188 312.75 121.417969 316.902344 C 120.589844 321.050781 119.867188 325.21875 119.246094 329.40625 C 118.625 333.589844 118.109375 337.789062 117.691406 342 C 117.277344 346.210938 116.96875 350.429688 116.757812 354.65625 C 116.550781 358.882812 116.449219 363.113281 116.449219 367.34375 C 116.449219 371.574219 116.550781 375.804688 116.757812 380.03125 C 116.96875 384.257812 117.277344 388.476562 117.691406 392.6875 C 118.109375 396.898438 118.625 401.097656 119.246094 405.28125 C 119.867188 409.46875 120.589844 413.636719 121.417969 417.785156 C 122.242188 421.9375 123.167969 426.0625 124.195312 430.167969 C 125.226562 434.273438 126.351562 438.347656 127.582031 442.398438 C 128.808594 446.449219 130.136719 450.464844 131.5625 454.449219 C 132.988281 458.433594 134.511719 462.378906 136.128906 466.289062 C 137.75 470.199219 139.464844 474.066406 141.273438 477.890625 C 143.082031 481.714844 144.984375 485.496094 146.976562 489.226562 C 148.972656 492.957031 151.058594 496.640625 153.234375 500.269531 C 155.410156 503.898438 157.671875 507.472656 160.023438 510.988281 C 162.375 514.507812 164.808594 517.96875 167.332031 521.367188 C 169.851562 524.765625 172.453125 528.097656 175.136719 531.371094 C 177.820312 534.640625 180.585938 537.84375 183.425781 540.980469 C 186.269531 544.113281 189.183594 547.179688 192.175781 550.171875 C 195.167969 553.164062 198.234375 556.078125 201.367188 558.921875 C 204.503906 561.761719 207.707031 564.527344 210.976562 567.210938 C 214.25 569.894531 217.585938 572.496094 220.984375 575.019531 C 224.382812 577.539062 227.839844 579.976562 231.359375 582.324219 C 234.875 584.675781 238.449219 586.941406 242.082031 589.113281 C 245.710938 591.289062 249.390625 593.375 253.121094 595.371094 C 256.855469 597.363281 260.632812 599.265625 264.457031 601.074219 C 268.28125 602.886719 272.148438 604.597656 276.058594 606.21875 C 279.96875 607.839844 283.914062 609.359375 287.898438 610.785156 C 291.882812 612.210938 295.902344 613.539062 299.949219 614.765625 C 304 615.996094 308.074219 617.125 312.179688 618.152344 C 316.285156 619.179688 320.414062 620.105469 324.5625 620.933594 C 328.714844 621.757812 332.882812 622.480469 337.066406 623.101562 C 341.253906 623.722656 345.449219 624.242188 349.660156 624.65625 C 353.871094 625.070312 358.089844 625.382812 362.316406 625.589844 C 366.542969 625.796875 370.773438 625.898438 375.003906 625.898438 C 379.234375 625.898438 383.464844 625.796875 387.691406 625.589844 C 391.917969 625.382812 396.136719 625.070312 400.347656 624.65625 C 404.558594 624.242188 408.757812 623.722656 412.941406 623.101562 C 417.128906 622.480469 421.296875 621.757812 425.445312 620.933594 C 429.597656 620.105469 433.722656 619.179688 437.828125 618.152344 C 441.933594 617.125 446.011719 615.996094 450.058594 614.765625 C 454.109375 613.539062 458.125 612.210938 462.109375 610.785156 C 466.09375 609.359375 470.039062 607.839844 473.949219 606.21875 C 477.859375 604.597656 481.726562 602.886719 485.550781 601.074219 C 489.378906 599.265625 493.15625 597.363281 496.886719 595.371094 C 500.621094 593.375 504.300781 591.289062 507.929688 589.113281 C 511.558594 586.941406 515.132812 584.675781 518.652344 582.324219 C 522.167969 579.976562 525.628906 577.539062 529.027344 575.019531 C 532.425781 572.496094 535.761719 569.894531 539.03125 567.210938 C 542.300781 564.527344 545.503906 561.761719 548.640625 558.921875 C 551.777344 556.078125 554.839844 553.164062 557.832031 550.171875 C 560.824219 547.179688 563.742188 544.113281 566.582031 540.980469 C 569.425781 537.84375 572.1875 534.640625 574.871094 531.371094 C 577.554688 528.097656 580.160156 524.765625 582.679688 521.367188 C 585.199219 517.96875 587.636719 514.507812 589.988281 510.988281 C 592.335938 507.472656 594.601562 503.898438 596.777344 500.269531 C 598.953125 496.640625 601.035156 492.957031 603.03125 489.226562 C 605.027344 485.496094 606.929688 481.714844 608.738281 477.890625 C 610.546875 474.066406 612.261719 470.199219 613.878906 466.289062 C 615.5 462.378906 617.023438 458.433594 618.445312 454.449219 C 619.871094 450.464844 621.199219 446.449219 622.429688 442.398438 C 623.65625 438.347656 624.785156 434.273438 625.8125 430.167969 C 626.839844 426.0625 627.769531 421.9375 628.59375 417.785156 C 629.417969 413.636719 630.140625 409.46875 630.761719 405.28125 C 631.382812 401.097656 631.902344 396.898438 632.316406 392.6875 C 632.730469 388.476562 633.042969 384.257812 633.25 380.03125 C 633.457031 375.804688 633.5625 371.574219 633.5625 367.34375 Z M 608.503906 367.34375 C 608.503906 371.164062 608.410156 374.984375 608.222656 378.800781 C 608.035156 382.617188 607.753906 386.429688 607.378906 390.230469 C 607.003906 394.035156 606.539062 397.824219 605.976562 401.605469 C 605.414062 405.386719 604.761719 409.148438 604.015625 412.898438 C 603.273438 416.644531 602.433594 420.371094 601.507812 424.078125 C 600.578125 427.785156 599.558594 431.46875 598.449219 435.125 C 597.339844 438.78125 596.140625 442.410156 594.855469 446.007812 C 593.566406 449.605469 592.191406 453.171875 590.730469 456.699219 C 589.265625 460.230469 587.71875 463.722656 586.085938 467.179688 C 584.453125 470.632812 582.734375 474.046875 580.933594 477.414062 C 579.132812 480.785156 577.25 484.109375 575.285156 487.386719 C 573.320312 490.664062 571.273438 493.890625 569.152344 497.070312 C 567.027344 500.246094 564.828125 503.371094 562.554688 506.441406 C 560.277344 509.507812 557.925781 512.519531 555.5 515.476562 C 553.078125 518.429688 550.582031 521.320312 548.015625 524.152344 C 545.449219 526.984375 542.816406 529.75 540.113281 532.453125 C 537.410156 535.15625 534.644531 537.789062 531.8125 540.355469 C 528.980469 542.921875 526.089844 545.417969 523.132812 547.84375 C 520.179688 550.265625 517.167969 552.617188 514.097656 554.894531 C 511.03125 557.167969 507.90625 559.371094 504.730469 561.492188 C 501.550781 563.617188 498.324219 565.660156 495.046875 567.625 C 491.769531 569.589844 488.445312 571.472656 485.074219 573.273438 C 481.703125 575.074219 478.292969 576.792969 474.835938 578.425781 C 471.382812 580.058594 467.890625 581.609375 464.359375 583.070312 C 460.828125 584.53125 457.265625 585.90625 453.667969 587.195312 C 450.070312 588.480469 446.441406 589.679688 442.785156 590.789062 C 439.128906 591.898438 435.445312 592.917969 431.738281 593.847656 C 428.03125 594.773438 424.304688 595.613281 420.558594 596.359375 C 416.808594 597.101562 413.046875 597.757812 409.265625 598.316406 C 405.484375 598.878906 401.691406 599.34375 397.890625 599.71875 C 394.085938 600.09375 390.277344 600.375 386.460938 600.5625 C 382.644531 600.75 378.824219 600.84375 375.003906 600.84375 C 371.183594 600.84375 367.363281 600.75 363.546875 600.5625 C 359.730469 600.375 355.917969 600.09375 352.117188 599.71875 C 348.3125 599.34375 344.523438 598.878906 340.742188 598.316406 C 336.960938 597.757812 333.199219 597.101562 329.449219 596.359375 C 325.703125 595.613281 321.972656 594.773438 318.265625 593.847656 C 314.558594 592.917969 310.878906 591.898438 307.222656 590.789062 C 303.566406 589.679688 299.9375 588.480469 296.339844 587.195312 C 292.742188 585.90625 289.175781 584.53125 285.644531 583.070312 C 282.117188 581.609375 278.625 580.058594 275.167969 578.425781 C 271.714844 576.792969 268.300781 575.074219 264.933594 573.273438 C 261.5625 571.472656 258.238281 569.589844 254.960938 567.625 C 251.683594 565.660156 248.453125 563.617188 245.277344 561.492188 C 242.101562 559.371094 238.976562 557.167969 235.90625 554.894531 C 232.835938 552.617188 229.824219 550.265625 226.871094 547.84375 C 223.917969 545.417969 221.023438 542.921875 218.195312 540.355469 C 215.363281 537.789062 212.59375 535.15625 209.894531 532.453125 C 207.191406 529.75 204.558594 526.984375 201.992188 524.152344 C 199.425781 521.320312 196.929688 518.429688 194.503906 515.476562 C 192.082031 512.519531 189.730469 509.507812 187.453125 506.441406 C 185.175781 503.371094 182.976562 500.246094 180.855469 497.070312 C 178.730469 493.890625 176.6875 490.664062 174.722656 487.386719 C 172.757812 484.109375 170.875 480.785156 169.074219 477.414062 C 167.273438 474.046875 165.554688 470.632812 163.921875 467.179688 C 162.289062 463.722656 160.738281 460.230469 159.277344 456.699219 C 157.8125 453.171875 156.441406 449.605469 155.152344 446.007812 C 153.863281 442.410156 152.667969 438.78125 151.558594 435.125 C 150.449219 431.46875 149.429688 427.785156 148.5 424.078125 C 147.570312 420.371094 146.734375 416.644531 145.988281 412.898438 C 145.242188 409.148438 144.589844 405.386719 144.03125 401.605469 C 143.46875 397.824219 143 394.035156 142.625 390.230469 C 142.253906 386.429688 141.972656 382.617188 141.785156 378.800781 C 141.597656 374.984375 141.503906 371.164062 141.503906 367.34375 C 141.503906 363.523438 141.597656 359.703125 141.785156 355.886719 C 141.972656 352.070312 142.253906 348.257812 142.625 344.457031 C 143 340.652344 143.46875 336.863281 144.03125 333.082031 C 144.589844 329.300781 145.242188 325.539062 145.988281 321.789062 C 146.734375 318.042969 147.570312 314.316406 148.5 310.609375 C 149.429688 306.902344 150.449219 303.21875 151.558594 299.5625 C 152.667969 295.90625 153.863281 292.277344 155.152344 288.679688 C 156.441406 285.082031 157.8125 281.515625 159.277344 277.988281 C 160.738281 274.457031 162.289062 270.964844 163.921875 267.507812 C 165.554688 264.054688 167.273438 260.640625 169.074219 257.273438 C 170.875 253.902344 172.757812 250.578125 174.722656 247.300781 C 176.6875 244.023438 178.730469 240.796875 180.855469 237.617188 C 182.976562 234.441406 185.175781 231.316406 187.453125 228.246094 C 189.730469 225.179688 192.082031 222.167969 194.503906 219.210938 C 196.929688 216.257812 199.425781 213.367188 201.992188 210.535156 C 204.558594 207.703125 207.191406 204.9375 209.894531 202.234375 C 212.59375 199.53125 215.363281 196.898438 218.195312 194.332031 C 221.023438 191.765625 223.917969 189.269531 226.871094 186.84375 C 229.824219 184.421875 232.835938 182.070312 235.90625 179.792969 C 238.976562 177.519531 242.101562 175.316406 245.277344 173.195312 C 248.453125 171.070312 251.683594 169.027344 254.960938 167.0625 C 258.238281 165.097656 261.5625 163.214844 264.933594 161.414062 C 268.300781 159.613281 271.714844 157.894531 275.167969 156.261719 C 278.625 154.628906 282.117188 153.078125 285.644531 151.617188 C 289.175781 150.15625 292.742188 148.78125 296.339844 147.492188 C 299.9375 146.207031 303.566406 145.007812 307.222656 143.898438 C 310.878906 142.789062 314.558594 141.769531 318.265625 140.839844 C 321.972656 139.914062 325.703125 139.074219 329.449219 138.328125 C 333.199219 137.585938 336.960938 136.929688 340.742188 136.371094 C 344.523438 135.808594 348.3125 135.34375 352.117188 134.96875 C 355.917969 134.59375 359.730469 134.3125 363.546875 134.125 C 367.363281 133.9375 371.183594 133.84375 375.003906 133.84375 C 378.824219 133.84375 382.644531 133.9375 386.460938 134.125 C 390.277344 134.3125 394.085938 134.59375 397.890625 134.96875 C 401.691406 135.34375 405.484375 135.808594 409.265625 136.371094 C 413.046875 136.929688 416.808594 137.585938 420.558594 138.328125 C 424.304688 139.074219 428.03125 139.914062 431.738281 140.839844 C 435.445312 141.769531 439.128906 142.789062 442.785156 143.898438 C 446.441406 145.007812 450.070312 146.207031 453.667969 147.492188 C 457.265625 148.78125 460.828125 150.15625 464.359375 151.617188 C 467.890625 153.078125 471.382812 154.628906 474.835938 156.261719 C 478.292969 157.894531 481.703125 159.613281 485.074219 161.414062 C 488.445312 163.214844 491.769531 165.097656 495.046875 167.0625 C 498.324219 169.027344 501.550781 171.070312 504.730469 173.195312 C 507.90625 175.316406 511.03125 177.519531 514.097656 179.792969 C 517.167969 182.070312 520.179688 184.421875 523.132812 186.84375 C 526.089844 189.269531 528.980469 191.765625 531.8125 194.332031 C 534.644531 196.898438 537.410156 199.53125 540.113281 202.234375 C 542.816406 204.9375 545.449219 207.703125 548.015625 210.535156 C 550.582031 213.367188 553.078125 216.257812 555.5 219.210938 C 557.925781 222.167969 560.277344 225.179688 562.554688 228.246094 C 564.828125 231.316406 567.027344 234.441406 569.152344 237.617188 C 571.273438 240.796875 573.320312 244.023438 575.285156 247.300781 C 577.25 250.578125 579.132812 253.902344 580.933594 257.273438 C 582.734375 260.640625 584.453125 264.054688 586.085938 267.507812 C 587.71875 270.964844 589.265625 274.457031 590.730469 277.988281 C 592.191406 281.515625 593.566406 285.082031 594.855469 288.679688 C 596.140625 292.277344 597.339844 295.90625 598.449219 299.5625 C 599.558594 303.21875 600.578125 306.902344 601.507812 310.609375 C 602.433594 314.316406 603.273438 318.042969 604.015625 321.789062 C 604.761719 325.539062 605.414062 329.300781 605.976562 333.082031 C 606.539062 336.863281 607.003906 340.652344 607.378906 344.457031 C 607.753906 348.257812 608.035156 352.070312 608.222656 355.886719 C 608.410156 359.703125 608.503906 363.523438 608.503906 367.34375 Z M 450.785156 367.34375 C 450.785156 366.101562 450.753906 364.863281 450.695312 363.625 C 450.632812 362.386719 450.542969 361.148438 450.421875 359.914062 C 450.296875 358.679688 450.148438 357.449219 449.964844 356.222656 C 449.78125 354.996094 449.570312 353.777344 449.328125 352.558594 C 449.085938 351.34375 448.816406 350.132812 448.515625 348.929688 C 448.210938 347.726562 447.882812 346.53125 447.523438 345.34375 C 447.160156 344.160156 446.773438 342.980469 446.355469 341.8125 C 445.9375 340.644531 445.492188 339.488281 445.015625 338.34375 C 444.542969 337.199219 444.039062 336.0625 443.507812 334.941406 C 442.980469 333.820312 442.421875 332.714844 441.835938 331.621094 C 441.253906 330.527344 440.640625 329.449219 440.003906 328.382812 C 439.367188 327.320312 438.703125 326.273438 438.015625 325.242188 C 437.324219 324.210938 436.609375 323.195312 435.871094 322.199219 C 435.132812 321.203125 434.371094 320.226562 433.582031 319.269531 C 432.796875 318.308594 431.988281 317.371094 431.152344 316.453125 C 430.320312 315.53125 429.464844 314.632812 428.589844 313.757812 C 427.710938 312.878906 426.8125 312.027344 425.894531 311.191406 C 424.976562 310.359375 424.039062 309.550781 423.078125 308.761719 C 422.121094 307.976562 421.144531 307.214844 420.148438 306.476562 C 419.148438 305.734375 418.136719 305.023438 417.105469 304.332031 C 416.074219 303.644531 415.027344 302.980469 413.964844 302.34375 C 412.898438 301.707031 411.820312 301.09375 410.726562 300.511719 C 409.632812 299.925781 408.523438 299.367188 407.402344 298.835938 C 406.28125 298.308594 405.148438 297.804688 404.003906 297.332031 C 402.859375 296.855469 401.699219 296.410156 400.535156 295.992188 C 399.367188 295.574219 398.1875 295.183594 397 294.824219 C 395.816406 294.464844 394.621094 294.132812 393.417969 293.832031 C 392.214844 293.53125 391.003906 293.261719 389.789062 293.019531 C 388.570312 292.777344 387.347656 292.5625 386.121094 292.382812 C 384.894531 292.199219 383.664062 292.046875 382.429688 291.925781 C 381.195312 291.804688 379.960938 291.714844 378.722656 291.652344 C 377.484375 291.59375 376.242188 291.5625 375.003906 291.5625 C 373.761719 291.5625 372.523438 291.59375 371.285156 291.652344 C 370.046875 291.714844 368.808594 291.804688 367.574219 291.925781 C 366.339844 292.046875 365.109375 292.199219 363.882812 292.382812 C 362.65625 292.5625 361.433594 292.777344 360.21875 293.019531 C 359.003906 293.261719 357.792969 293.53125 356.589844 293.832031 C 355.386719 294.132812 354.191406 294.464844 353.003906 294.824219 C 351.816406 295.183594 350.640625 295.574219 349.472656 295.992188 C 348.304688 296.410156 347.148438 296.855469 346.003906 297.332031 C 344.855469 297.804688 343.722656 298.308594 342.601562 298.835938 C 341.480469 299.367188 340.375 299.925781 339.28125 300.511719 C 338.1875 301.09375 337.105469 301.707031 336.042969 302.34375 C 334.980469 302.980469 333.933594 303.644531 332.902344 304.332031 C 331.871094 305.023438 330.855469 305.734375 329.859375 306.476562 C 328.863281 307.214844 327.886719 307.976562 326.925781 308.761719 C 325.96875 309.550781 325.03125 310.359375 324.109375 311.191406 C 323.191406 312.027344 322.292969 312.878906 321.417969 313.757812 C 320.539062 314.632812 319.683594 315.53125 318.851562 316.453125 C 318.019531 317.371094 317.210938 318.308594 316.421875 319.269531 C 315.636719 320.226562 314.875 321.203125 314.132812 322.199219 C 313.394531 323.195312 312.683594 324.210938 311.992188 325.242188 C 311.304688 326.273438 310.640625 327.320312 310.003906 328.382812 C 309.363281 329.449219 308.753906 330.527344 308.167969 331.621094 C 307.585938 332.714844 307.027344 333.820312 306.496094 334.941406 C 305.96875 336.0625 305.464844 337.199219 304.988281 338.34375 C 304.515625 339.488281 304.070312 340.644531 303.652344 341.8125 C 303.234375 342.980469 302.84375 344.160156 302.484375 345.34375 C 302.125 346.53125 301.792969 347.726562 301.492188 348.929688 C 301.191406 350.132812 300.917969 351.34375 300.675781 352.558594 C 300.433594 353.777344 300.222656 354.996094 300.042969 356.222656 C 299.859375 357.449219 299.707031 358.679688 299.585938 359.914062 C 299.464844 361.148438 299.375 362.386719 299.3125 363.625 C 299.25 364.863281 299.222656 366.101562 299.222656 367.34375 C 299.222656 368.582031 299.25 369.824219 299.3125 371.0625 C 299.375 372.300781 299.464844 373.539062 299.585938 374.773438 C 299.707031 376.007812 299.859375 377.238281 300.042969 378.464844 C 300.222656 379.691406 300.433594 380.910156 300.675781 382.128906 C 300.917969 383.34375 301.191406 384.554688 301.492188 385.757812 C 301.792969 386.960938 302.125 388.15625 302.484375 389.34375 C 302.84375 390.527344 303.234375 391.707031 303.652344 392.875 C 304.070312 394.042969 304.515625 395.199219 304.988281 396.34375 C 305.464844 397.488281 305.96875 398.625 306.496094 399.746094 C 307.027344 400.867188 307.585938 401.972656 308.167969 403.066406 C 308.753906 404.160156 309.363281 405.238281 310.003906 406.304688 C 310.640625 407.367188 311.304688 408.414062 311.992188 409.445312 C 312.683594 410.476562 313.394531 411.492188 314.132812 412.488281 C 314.875 413.484375 315.636719 414.460938 316.421875 415.417969 C 317.210938 416.378906 318.019531 417.316406 318.851562 418.234375 C 319.683594 419.15625 320.539062 420.050781 321.417969 420.929688 C 322.292969 421.804688 323.191406 422.660156 324.109375 423.496094 C 325.03125 424.328125 325.96875 425.136719 326.925781 425.925781 C 327.886719 426.710938 328.863281 427.472656 329.859375 428.210938 C 330.855469 428.953125 331.871094 429.664062 332.902344 430.355469 C 333.933594 431.042969 334.980469 431.707031 336.042969 432.34375 C 337.105469 432.980469 338.1875 433.59375 339.28125 434.175781 C 340.375 434.761719 341.480469 435.320312 342.601562 435.851562 C 343.722656 436.378906 344.855469 436.882812 346.003906 437.355469 C 347.148438 437.832031 348.304688 438.277344 349.472656 438.695312 C 350.640625 439.113281 351.816406 439.503906 353.003906 439.863281 C 354.191406 440.222656 355.386719 440.554688 356.589844 440.855469 C 357.792969 441.15625 359.003906 441.425781 360.21875 441.667969 C 361.433594 441.910156 362.65625 442.125 363.882812 442.304688 C 365.109375 442.488281 366.339844 442.640625 367.574219 442.761719 C 368.808594 442.882812 370.046875 442.972656 371.285156 443.035156 C 372.523438 443.09375 373.761719 443.125 375.003906 443.125 C 376.242188 443.125 377.484375 443.09375 378.722656 443.035156 C 379.960938 442.972656 381.195312 442.882812 382.429688 442.761719 C 383.664062 442.640625 384.894531 442.488281 386.121094 442.304688 C 387.347656 442.125 388.570312 441.910156 389.789062 441.667969 C 391.003906 441.425781 392.214844 441.15625 393.417969 440.855469 C 394.621094 440.554688 395.816406 440.222656 397 439.863281 C 398.1875 439.503906 399.367188 439.113281 400.535156 438.695312 C 401.699219 438.277344 402.859375 437.832031 404.003906 437.355469 C 405.148438 436.882812 406.28125 436.378906 407.402344 435.851562 C 408.523438 435.320312 409.632812 434.761719 410.726562 434.175781 C 411.820312 433.59375 412.898438 432.980469 413.964844 432.34375 C 415.027344 431.707031 416.074219 431.042969 417.105469 430.355469 C 418.136719 429.664062 419.148438 428.953125 420.148438 428.210938 C 421.144531 427.472656 422.121094 426.710938 423.078125 425.925781 C 424.039062 425.136719 424.976562 424.328125 425.894531 423.496094 C 426.8125 422.660156 427.710938 421.808594 428.589844 420.929688 C 429.464844 420.054688 430.320312 419.15625 431.152344 418.234375 C 431.988281 417.316406 432.796875 416.378906 433.582031 415.417969 C 434.371094 414.460938 435.132812 413.484375 435.871094 412.488281 C 436.609375 411.492188 437.324219 410.476562 438.015625 409.445312 C 438.703125 408.414062 439.367188 407.367188 440.003906 406.304688 C 440.640625 405.238281 441.253906 404.160156 441.835938 403.066406 C 442.421875 401.972656 442.980469 400.867188 443.507812 399.746094 C 444.039062 398.625 444.542969 397.488281 445.015625 396.34375 C 445.492188 395.199219 445.9375 394.042969 446.355469 392.875 C 446.773438 391.707031 447.160156 390.527344 447.523438 389.34375 C 447.882812 388.15625 448.210938 386.960938 448.515625 385.757812 C 448.816406 384.554688 449.085938 383.34375 449.328125 382.128906 C 449.570312 380.910156 449.78125 379.691406 449.964844 378.464844 C 450.148438 377.238281 450.296875 376.007812 450.421875 374.773438 C 450.542969 373.539062 450.632812 372.300781 450.695312 371.0625 C 450.753906 369.824219 450.785156 368.582031 450.785156 367.34375 Z M 444.816406 367.34375 C 444.816406 368.484375 444.789062 369.628906 444.730469 370.769531 C 444.675781 371.910156 444.59375 373.050781 444.480469 374.1875 C 444.367188 375.324219 444.226562 376.457031 444.058594 377.585938 C 443.894531 378.71875 443.699219 379.84375 443.472656 380.964844 C 443.25 382.082031 443 383.199219 442.722656 384.304688 C 442.445312 385.414062 442.140625 386.515625 441.808594 387.609375 C 441.476562 388.703125 441.121094 389.785156 440.734375 390.863281 C 440.351562 391.9375 439.9375 393.003906 439.5 394.058594 C 439.066406 395.113281 438.601562 396.160156 438.113281 397.191406 C 437.625 398.226562 437.109375 399.246094 436.574219 400.253906 C 436.035156 401.261719 435.472656 402.253906 434.882812 403.234375 C 434.296875 404.214844 433.683594 405.179688 433.050781 406.128906 C 432.414062 407.078125 431.757812 408.011719 431.078125 408.929688 C 430.398438 409.847656 429.695312 410.75 428.96875 411.632812 C 428.246094 412.515625 427.5 413.378906 426.730469 414.226562 C 425.964844 415.074219 425.175781 415.898438 424.367188 416.707031 C 423.5625 417.515625 422.734375 418.304688 421.886719 419.070312 C 421.039062 419.839844 420.175781 420.585938 419.292969 421.308594 C 418.410156 422.035156 417.507812 422.738281 416.589844 423.417969 C 415.671875 424.097656 414.738281 424.753906 413.789062 425.390625 C 412.839844 426.023438 411.875 426.636719 410.894531 427.222656 C 409.914062 427.8125 408.921875 428.375 407.914062 428.914062 C 406.90625 429.449219 405.886719 429.964844 404.851562 430.453125 C 403.820312 430.941406 402.777344 431.40625 401.71875 431.839844 C 400.664062 432.277344 399.597656 432.691406 398.523438 433.074219 C 397.445312 433.460938 396.363281 433.816406 395.269531 434.148438 C 394.175781 434.480469 393.074219 434.785156 391.96875 435.0625 C 390.859375 435.339844 389.746094 435.589844 388.625 435.8125 C 387.503906 436.039062 386.378906 436.234375 385.246094 436.398438 C 384.117188 436.566406 382.984375 436.707031 381.847656 436.820312 C 380.710938 436.929688 379.570312 437.015625 378.429688 437.070312 C 377.289062 437.128906 376.148438 437.15625 375.003906 437.15625 C 373.863281 437.15625 372.71875 437.128906 371.578125 437.070312 C 370.4375 437.015625 369.296875 436.929688 368.160156 436.820312 C 367.023438 436.707031 365.890625 436.566406 364.761719 436.398438 C 363.628906 436.234375 362.503906 436.039062 361.382812 435.8125 C 360.265625 435.589844 359.148438 435.339844 358.042969 435.0625 C 356.933594 434.785156 355.832031 434.480469 354.738281 434.148438 C 353.644531 433.816406 352.5625 433.460938 351.484375 433.074219 C 350.410156 432.691406 349.34375 432.277344 348.289062 431.839844 C 347.234375 431.40625 346.1875 430.941406 345.15625 430.453125 C 344.121094 429.964844 343.101562 429.449219 342.09375 428.914062 C 341.085938 428.375 340.09375 427.8125 339.113281 427.222656 C 338.132812 426.636719 337.167969 426.023438 336.21875 425.390625 C 335.269531 424.753906 334.335938 424.097656 333.417969 423.417969 C 332.5 422.738281 331.597656 422.035156 330.714844 421.308594 C 329.832031 420.585938 328.96875 419.839844 328.121094 419.070312 C 327.273438 418.304688 326.449219 417.515625 325.640625 416.707031 C 324.832031 415.898438 324.042969 415.074219 323.277344 414.226562 C 322.507812 413.378906 321.761719 412.515625 321.039062 411.632812 C 320.3125 410.75 319.609375 409.847656 318.929688 408.929688 C 318.25 408.011719 317.59375 407.078125 316.957031 406.128906 C 316.324219 405.179688 315.710938 404.214844 315.125 403.234375 C 314.535156 402.253906 313.972656 401.261719 313.433594 400.253906 C 312.898438 399.246094 312.382812 398.226562 311.894531 397.191406 C 311.40625 396.160156 310.941406 395.113281 310.507812 394.058594 C 310.070312 393.003906 309.65625 391.9375 309.273438 390.863281 C 308.886719 389.785156 308.53125 388.703125 308.199219 387.609375 C 307.867188 386.515625 307.5625 385.414062 307.285156 384.308594 C 307.007812 383.199219 306.757812 382.082031 306.535156 380.964844 C 306.308594 379.84375 306.113281 378.71875 305.949219 377.585938 C 305.78125 376.457031 305.640625 375.324219 305.527344 374.1875 C 305.417969 373.050781 305.332031 371.910156 305.277344 370.769531 C 305.21875 369.628906 305.191406 368.484375 305.191406 367.34375 C 305.191406 366.203125 305.21875 365.058594 305.277344 363.917969 C 305.332031 362.777344 305.417969 361.636719 305.527344 360.5 C 305.640625 359.363281 305.78125 358.230469 305.949219 357.101562 C 306.117188 355.96875 306.308594 354.84375 306.535156 353.722656 C 306.757812 352.601562 307.007812 351.488281 307.285156 350.378906 C 307.5625 349.273438 307.867188 348.171875 308.199219 347.078125 C 308.53125 345.984375 308.886719 344.902344 309.273438 343.824219 C 309.65625 342.75 310.070312 341.683594 310.507812 340.628906 C 310.941406 339.570312 311.40625 338.527344 311.894531 337.496094 C 312.382812 336.460938 312.898438 335.441406 313.433594 334.433594 C 313.972656 333.425781 314.535156 332.433594 315.125 331.453125 C 315.710938 330.472656 316.324219 329.507812 316.957031 328.558594 C 317.59375 327.609375 318.25 326.675781 318.929688 325.757812 C 319.609375 324.839844 320.3125 323.9375 321.039062 323.054688 C 321.761719 322.171875 322.507812 321.308594 323.277344 320.460938 C 324.042969 319.613281 324.832031 318.785156 325.640625 317.980469 C 326.449219 317.171875 327.273438 316.382812 328.121094 315.617188 C 328.96875 314.847656 329.832031 314.101562 330.714844 313.378906 C 331.597656 312.652344 332.5 311.949219 333.417969 311.269531 C 334.335938 310.589844 335.269531 309.933594 336.21875 309.296875 C 337.167969 308.664062 338.132812 308.050781 339.113281 307.464844 C 340.09375 306.875 341.085938 306.3125 342.09375 305.773438 C 343.101562 305.238281 344.121094 304.722656 345.15625 304.234375 C 346.1875 303.746094 347.234375 303.28125 348.289062 302.847656 C 349.34375 302.410156 350.410156 301.996094 351.484375 301.613281 C 352.5625 301.226562 353.644531 300.871094 354.738281 300.539062 C 355.832031 300.207031 356.933594 299.902344 358.042969 299.625 C 359.148438 299.347656 360.265625 299.097656 361.382812 298.875 C 362.503906 298.648438 363.628906 298.453125 364.761719 298.289062 C 365.890625 298.121094 367.023438 297.980469 368.160156 297.867188 C 369.296875 297.757812 370.4375 297.671875 371.578125 297.617188 C 372.71875 297.558594 373.863281 297.53125 375.003906 297.53125 C 376.148438 297.53125 377.289062 297.558594 378.429688 297.617188 C 379.570312 297.671875 380.710938 297.757812 381.847656 297.867188 C 382.984375 297.980469 384.117188 298.121094 385.246094 298.289062 C 386.378906 298.453125 387.503906 298.648438 388.625 298.875 C 389.746094 299.097656 390.859375 299.347656 391.96875 299.625 C 393.074219 299.902344 394.175781 300.207031 395.269531 300.539062 C 396.363281 300.871094 397.445312 301.226562 398.523438 301.613281 C 399.597656 301.996094 400.664062 302.410156 401.71875 302.847656 C 402.777344 303.28125 403.820312 303.746094 404.851562 304.234375 C 405.886719 304.722656 406.90625 305.238281 407.914062 305.773438 C 408.921875 306.3125 409.914062 306.875 410.894531 307.464844 C 411.875 308.050781 412.839844 308.664062 413.789062 309.296875 C 414.738281 309.933594 415.671875 310.589844 416.589844 311.269531 C 417.507812 311.949219 418.410156 312.652344 419.292969 313.378906 C 420.175781 314.101562 421.039062 314.847656 421.886719 315.617188 C 422.734375 316.382812 423.5625 317.171875 424.367188 317.980469 C 425.175781 318.785156 425.964844 319.613281 426.730469 320.460938 C 427.5 321.308594 428.246094 322.171875 428.96875 323.054688 C 429.695312 323.9375 430.398438 324.839844 431.078125 325.757812 C 431.757812 326.675781 432.414062 327.609375 433.050781 328.558594 C 433.683594 329.507812 434.296875 330.472656 434.882812 331.453125 C 435.472656 332.433594 436.035156 333.425781 436.574219 334.433594 C 437.109375 335.441406 437.625 336.460938 438.113281 337.496094 C 438.601562 338.527344 439.066406 339.574219 439.5 340.628906 C 439.9375 341.683594 440.351562 342.75 440.734375 343.824219 C 441.121094 344.902344 441.476562 345.984375 441.808594 347.078125 C 442.140625 348.171875 442.445312 349.273438 442.722656 350.378906 C 443 351.488281 443.25 352.601562 443.472656 353.722656 C 443.699219 354.84375 443.894531 355.96875 444.058594 357.101562 C 444.226562 358.230469 444.367188 359.363281 444.480469 360.5 C 444.59375 361.636719 444.675781 362.777344 444.730469 363.917969 C 444.789062 365.058594 444.816406 366.203125 444.816406 367.34375 Z M 438.050781 367.34375 C 438.050781 365.277344 437.949219 363.21875 437.746094 361.164062 C 437.542969 359.109375 437.242188 357.070312 436.839844 355.042969 C 436.4375 353.019531 435.933594 351.019531 435.335938 349.042969 C 434.734375 347.066406 434.042969 345.125 433.25 343.214844 C 432.460938 341.308594 431.578125 339.445312 430.605469 337.625 C 429.632812 335.800781 428.570312 334.035156 427.425781 332.316406 C 426.277344 330.601562 425.050781 328.945312 423.738281 327.347656 C 422.429688 325.75 421.042969 324.222656 419.585938 322.761719 C 418.125 321.304688 416.597656 319.917969 415 318.609375 C 413.402344 317.296875 411.746094 316.070312 410.03125 314.921875 C 408.3125 313.773438 406.542969 312.714844 404.722656 311.742188 C 402.902344 310.769531 401.039062 309.886719 399.128906 309.097656 C 397.222656 308.304688 395.28125 307.609375 393.304688 307.011719 C 391.328125 306.414062 389.328125 305.910156 387.304688 305.507812 C 385.277344 305.105469 383.238281 304.804688 381.183594 304.601562 C 379.128906 304.398438 377.066406 304.296875 375.003906 304.296875 C 372.9375 304.296875 370.878906 304.398438 368.824219 304.601562 C 366.769531 304.804688 364.730469 305.105469 362.703125 305.507812 C 360.679688 305.910156 358.675781 306.414062 356.703125 307.011719 C 354.726562 307.609375 352.785156 308.304688 350.875 309.097656 C 348.96875 309.886719 347.105469 310.769531 345.28125 311.742188 C 343.460938 312.714844 341.691406 313.773438 339.976562 314.921875 C 338.257812 316.070312 336.601562 317.296875 335.007812 318.609375 C 333.410156 319.917969 331.882812 321.304688 330.421875 322.761719 C 328.960938 324.222656 327.578125 325.75 326.265625 327.347656 C 324.957031 328.945312 323.730469 330.601562 322.582031 332.316406 C 321.433594 334.035156 320.375 335.800781 319.402344 337.625 C 318.425781 339.445312 317.546875 341.308594 316.753906 343.214844 C 315.964844 345.125 315.269531 347.066406 314.671875 349.042969 C 314.070312 351.019531 313.570312 353.019531 313.167969 355.042969 C 312.765625 357.070312 312.460938 359.109375 312.261719 361.164062 C 312.058594 363.21875 311.957031 365.277344 311.957031 367.34375 C 311.957031 369.410156 312.058594 371.46875 312.261719 373.523438 C 312.460938 375.578125 312.765625 377.617188 313.167969 379.644531 C 313.570312 381.667969 314.070312 383.667969 314.671875 385.644531 C 315.269531 387.621094 315.964844 389.5625 316.753906 391.472656 C 317.546875 393.378906 318.425781 395.242188 319.402344 397.0625 C 320.375 398.886719 321.433594 400.652344 322.582031 402.371094 C 323.730469 404.085938 324.957031 405.742188 326.265625 407.339844 C 327.578125 408.9375 328.960938 410.464844 330.421875 411.925781 C 331.882812 413.382812 333.410156 414.769531 335.007812 416.078125 C 336.601562 417.390625 338.257812 418.617188 339.976562 419.765625 C 341.691406 420.914062 343.460938 421.972656 345.28125 422.945312 C 347.105469 423.917969 348.96875 424.800781 350.875 425.589844 C 352.785156 426.382812 354.726562 427.078125 356.703125 427.675781 C 358.675781 428.273438 360.679688 428.777344 362.703125 429.179688 C 364.730469 429.582031 366.769531 429.882812 368.824219 430.085938 C 370.878906 430.289062 372.9375 430.390625 375.003906 430.390625 C 377.066406 430.390625 379.128906 430.289062 381.183594 430.085938 C 383.238281 429.882812 385.277344 429.582031 387.304688 429.179688 C 389.328125 428.777344 391.328125 428.273438 393.304688 427.675781 C 395.28125 427.078125 397.222656 426.382812 399.128906 425.589844 C 401.039062 424.800781 402.902344 423.917969 404.722656 422.945312 C 406.542969 421.972656 408.3125 420.914062 410.03125 419.765625 C 411.746094 418.617188 413.402344 417.390625 415 416.078125 C 416.597656 414.769531 418.125 413.382812 419.585938 411.925781 C 421.042969 410.464844 422.429688 408.9375 423.738281 407.339844 C 425.050781 405.742188 426.277344 404.085938 427.425781 402.371094 C 428.570312 400.652344 429.632812 398.886719 430.605469 397.0625 C 431.578125 395.242188 432.460938 393.378906 433.25 391.472656 C 434.042969 389.5625 434.734375 387.621094 435.335938 385.644531 C 435.933594 383.667969 436.4375 381.667969 436.839844 379.644531 C 437.242188 377.617188 437.542969 375.578125 437.746094 373.523438 C 437.949219 371.46875 438.050781 369.410156 438.050781 367.34375 Z M 438.050781 367.34375 " fill-opacity="1" fill-rule="evenodd"/></g><g clip-path="url(#7c9b0f3b61)"><path fill="#FFF" d="M 485.027344 378.476562 C 484.265625 378.476562 483.511719 378.402344 482.761719 378.253906 C 482.015625 378.105469 481.289062 377.886719 480.582031 377.59375 C 479.878906 377.300781 479.210938 376.941406 478.574219 376.519531 C 477.941406 376.09375 477.355469 375.613281 476.816406 375.074219 C 476.277344 374.535156 475.792969 373.949219 475.371094 373.316406 C 474.945312 372.679688 474.589844 372.011719 474.296875 371.304688 C 474.003906 370.601562 473.785156 369.875 473.636719 369.128906 C 473.488281 368.378906 473.414062 367.625 473.414062 366.859375 C 473.414062 366.097656 473.488281 365.34375 473.636719 364.59375 C 473.785156 363.847656 474.003906 363.121094 474.296875 362.414062 C 474.589844 361.710938 474.945312 361.042969 475.371094 360.40625 C 475.792969 359.773438 476.277344 359.1875 476.816406 358.648438 C 477.355469 358.105469 477.941406 357.625 478.574219 357.203125 C 479.210938 356.777344 479.878906 356.421875 480.582031 356.128906 C 481.289062 355.835938 482.015625 355.617188 482.761719 355.46875 C 483.511719 355.320312 484.265625 355.246094 485.027344 355.246094 C 485.792969 355.246094 486.546875 355.320312 487.296875 355.46875 C 488.042969 355.617188 488.769531 355.835938 489.472656 356.128906 C 490.179688 356.421875 490.847656 356.777344 491.484375 357.203125 C 492.117188 357.625 492.703125 358.105469 493.242188 358.648438 C 493.78125 359.1875 494.265625 359.773438 494.6875 360.40625 C 495.113281 361.042969 495.46875 361.710938 495.761719 362.414062 C 496.054688 363.121094 496.273438 363.847656 496.421875 364.59375 C 496.570312 365.34375 496.644531 366.097656 496.644531 366.859375 C 496.644531 367.625 496.570312 368.378906 496.421875 369.128906 C 496.273438 369.875 496.054688 370.601562 495.761719 371.304688 C 495.46875 372.011719 495.113281 372.679688 494.6875 373.316406 C 494.265625 373.949219 493.78125 374.535156 493.242188 375.074219 C 492.703125 375.613281 492.117188 376.09375 491.484375 376.519531 C 490.847656 376.941406 490.179688 377.300781 489.472656 377.59375 C 488.769531 377.886719 488.042969 378.105469 487.296875 378.253906 C 486.546875 378.402344 485.792969 378.476562 485.027344 378.476562 Z M 485.027344 378.476562 " fill-opacity="1" fill-rule="evenodd"/></g><g clip-path="url(#69bf442939)"><path fill="#FFF" d="M 264.96875 379.433594 C 265.730469 379.433594 266.488281 379.359375 267.234375 379.210938 C 267.984375 379.0625 268.710938 378.84375 269.414062 378.550781 C 270.117188 378.257812 270.789062 377.902344 271.421875 377.476562 C 272.054688 377.054688 272.644531 376.570312 273.183594 376.03125 C 273.722656 375.492188 274.203125 374.90625 274.628906 374.273438 C 275.050781 373.636719 275.410156 372.96875 275.699219 372.261719 C 275.992188 371.558594 276.214844 370.832031 276.363281 370.085938 C 276.511719 369.335938 276.585938 368.582031 276.585938 367.816406 C 276.585938 367.054688 276.511719 366.300781 276.363281 365.550781 C 276.214844 364.804688 275.992188 364.078125 275.699219 363.371094 C 275.410156 362.667969 275.050781 362 274.628906 361.363281 C 274.203125 360.730469 273.722656 360.144531 273.183594 359.605469 C 272.644531 359.0625 272.054688 358.582031 271.421875 358.160156 C 270.789062 357.734375 270.117188 357.378906 269.414062 357.085938 C 268.710938 356.792969 267.984375 356.574219 267.234375 356.425781 C 266.488281 356.277344 265.730469 356.203125 264.96875 356.203125 C 264.207031 356.203125 263.449219 356.277344 262.703125 356.425781 C 261.953125 356.574219 261.226562 356.792969 260.523438 357.085938 C 259.816406 357.378906 259.148438 357.734375 258.515625 358.160156 C 257.878906 358.582031 257.292969 359.0625 256.753906 359.605469 C 256.214844 360.144531 255.734375 360.730469 255.308594 361.363281 C 254.886719 362 254.527344 362.667969 254.234375 363.371094 C 253.945312 364.078125 253.722656 364.804688 253.574219 365.550781 C 253.425781 366.300781 253.351562 367.054688 253.351562 367.816406 C 253.351562 368.582031 253.425781 369.335938 253.574219 370.085938 C 253.722656 370.832031 253.945312 371.558594 254.234375 372.261719 C 254.527344 372.96875 254.886719 373.636719 255.308594 374.273438 C 255.734375 374.90625 256.214844 375.492188 256.753906 376.03125 C 257.292969 376.570312 257.878906 377.054688 258.515625 377.476562 C 259.148438 377.902344 259.816406 378.257812 260.523438 378.550781 C 261.226562 378.84375 261.953125 379.0625 262.703125 379.210938 C 263.449219 379.359375 264.207031 379.433594 264.96875 379.433594 Z M 264.96875 379.433594 " fill-opacity="1" fill-rule="evenodd"/></g><g clip-path="url(#c346057dad)"><g transform="matrix(1, 0, 0, 1, 12, 357)"><g clip-path="url(#b2538907e1)"><g clip-path="url(#d5602b8f6d)"><path fill="#FFF" d="M 0.917969 0.480469 L 715.207031 0.480469 L 715.207031 12.207031 L 0.917969 12.207031 Z M 0.917969 0.480469 " fill-opacity="1" fill-rule="nonzero"/></g></g></g></g><g clip-path="url(#e1d3a47018)"><g transform="matrix(1, 0, 0, 1, 12, 512)"><g clip-path="url(#a7f17cbfa6)"><g clip-path="url(#4ad0346c9d)"><path fill="#FFF" d="M 0.917969 0.714844 L 725.078125 0.714844 L 725.078125 12 L 0.917969 12 Z M 0.917969 0.714844 " fill-opacity="1" fill-rule="nonzero"/></g></g></g></g><g fill="#FFF" fill-opacity="1"><g transform="translate(8.276904, 487.707437)"><g><path d="M 45.375 -1.734375 L 24.59375 -58.234375 C 24.519531 -58.472656 24.359375 -58.570312 24.109375 -58.53125 C 23.859375 -58.488281 23.734375 -58.304688 23.734375 -57.984375 C 23.648438 -53.523438 23.628906 -48.597656 23.671875 -43.203125 C 23.710938 -37.804688 23.773438 -32.410156 23.859375 -27.015625 C 23.941406 -21.617188 23.898438 -16.648438 23.734375 -12.109375 C 23.734375 -11.367188 24 -10.75 24.53125 -10.25 C 25.070312 -9.757812 25.671875 -9.472656 26.328125 -9.390625 C 27.398438 -9.390625 28.265625 -9.1875 28.921875 -8.78125 C 29.503906 -8.445312 29.816406 -7.722656 29.859375 -6.609375 C 29.898438 -5.492188 29.878906 -4.363281 29.796875 -3.21875 C 29.710938 -2.394531 29.359375 -1.648438 28.734375 -0.984375 C 28.117188 -0.328125 27.359375 0 26.453125 0 C 23.734375 0.0820312 20.582031 0.125 17 0.125 C 13.414062 0.125 10.425781 0.164062 8.03125 0.25 C 7.289062 0.25 6.648438 0.00390625 6.109375 -0.484375 C 5.578125 -0.984375 5.269531 -1.601562 5.1875 -2.34375 C 5.101562 -3.007812 5.039062 -3.648438 5 -4.265625 C 4.957031 -4.878906 4.9375 -5.476562 4.9375 -6.0625 C 4.9375 -6.96875 5.265625 -7.707031 5.921875 -8.28125 C 6.585938 -8.851562 7.332031 -9.179688 8.15625 -9.265625 L 9.140625 -9.265625 C 9.804688 -9.265625 10.382812 -9.507812 10.875 -10 C 11.375 -10.5 11.625 -11.082031 11.625 -11.75 C 11.707031 -15.289062 11.75 -19.328125 11.75 -23.859375 C 11.75 -28.390625 11.75 -33.085938 11.75 -37.953125 C 11.75 -42.816406 11.75 -47.554688 11.75 -52.171875 C 11.75 -56.785156 11.75 -60.96875 11.75 -64.71875 C 11.75 -68.46875 11.75 -71.414062 11.75 -73.5625 C 11.832031 -74.21875 11.625 -74.789062 11.125 -75.28125 C 10.632812 -75.78125 10.054688 -76.03125 9.390625 -76.03125 C 9.222656 -76.03125 9.035156 -76.050781 8.828125 -76.09375 C 8.628906 -76.132812 8.40625 -76.15625 8.15625 -76.15625 C 7.332031 -76.15625 6.609375 -76.460938 5.984375 -77.078125 C 5.367188 -77.691406 5.0625 -78.414062 5.0625 -79.25 C 4.976562 -79.90625 4.9375 -80.726562 4.9375 -81.71875 C 4.9375 -82.707031 4.9375 -83.488281 4.9375 -84.0625 C 4.9375 -85.550781 5.722656 -86.375 7.296875 -86.53125 C 9.929688 -86.695312 12.894531 -86.738281 16.1875 -86.65625 C 19.488281 -86.570312 22.171875 -86.488281 24.234375 -86.40625 C 25.222656 -86.40625 25.921875 -85.914062 26.328125 -84.9375 C 28.804688 -78.914062 31.300781 -72.316406 33.8125 -65.140625 C 36.320312 -57.972656 38.832031 -50.804688 41.34375 -43.640625 C 43.863281 -36.472656 46.316406 -29.921875 48.703125 -23.984375 C 48.785156 -23.898438 48.828125 -23.835938 48.828125 -23.796875 C 48.828125 -23.753906 48.828125 -23.734375 48.828125 -23.734375 C 49.078125 -23.242188 49.445312 -23 49.9375 -23 C 50.4375 -23 50.769531 -23.242188 50.9375 -23.734375 C 54.894531 -33.785156 58.664062 -44.085938 62.25 -54.640625 C 65.832031 -65.191406 69.519531 -75.328125 73.3125 -85.046875 C 73.71875 -86.117188 74.457031 -86.65625 75.53125 -86.65625 C 75.863281 -86.65625 76.75 -86.65625 78.1875 -86.65625 C 79.632812 -86.65625 81.304688 -86.65625 83.203125 -86.65625 C 85.097656 -86.65625 86.890625 -86.65625 88.578125 -86.65625 C 90.265625 -86.65625 91.476562 -86.65625 92.21875 -86.65625 C 94.113281 -86.65625 95.0625 -85.832031 95.0625 -84.1875 C 95.0625 -83.613281 95.082031 -82.726562 95.125 -81.53125 C 95.164062 -80.332031 95.1875 -79.445312 95.1875 -78.875 C 95.1875 -78.132812 94.9375 -77.492188 94.4375 -76.953125 C 93.945312 -76.421875 93.289062 -76.113281 92.46875 -76.03125 C 92.0625 -76.03125 91.648438 -76.007812 91.234375 -75.96875 C 90.816406 -75.925781 90.40625 -75.90625 90 -75.90625 C 89.34375 -75.988281 88.742188 -75.78125 88.203125 -75.28125 C 87.671875 -74.789062 87.445312 -74.21875 87.53125 -73.5625 C 87.613281 -66.46875 87.675781 -59.519531 87.71875 -52.71875 C 87.757812 -45.925781 87.78125 -39.359375 87.78125 -33.015625 C 87.78125 -30.453125 87.78125 -27.953125 87.78125 -25.515625 C 87.78125 -23.085938 87.816406 -20.554688 87.890625 -17.921875 C 87.890625 -17.597656 87.867188 -16.796875 87.828125 -15.515625 C 87.796875 -14.234375 87.816406 -13.019531 87.890625 -11.875 C 87.890625 -11.207031 88.132812 -10.625 88.625 -10.125 C 89.125 -9.632812 89.664062 -9.390625 90.25 -9.390625 C 90.570312 -9.304688 91.023438 -9.265625 91.609375 -9.265625 C 93.171875 -9.109375 93.953125 -8.242188 93.953125 -6.671875 L 93.953125 -3.34375 C 93.867188 -2.4375 93.5 -1.648438 92.84375 -0.984375 C 92.1875 -0.328125 91.40625 0 90.5 0 L 72.9375 0 C 72.113281 0.0820312 71.410156 -0.160156 70.828125 -0.734375 C 70.253906 -1.316406 69.925781 -2.019531 69.84375 -2.84375 C 69.757812 -3.664062 69.71875 -4.445312 69.71875 -5.1875 C 69.71875 -5.9375 69.71875 -6.390625 69.71875 -6.546875 C 69.71875 -7.296875 69.984375 -7.9375 70.515625 -8.46875 C 71.054688 -9 71.695312 -9.222656 72.4375 -9.140625 L 72.6875 -9.140625 C 73.425781 -9.066406 74.082031 -9.296875 74.65625 -9.828125 C 75.238281 -10.359375 75.53125 -11 75.53125 -11.75 C 75.445312 -18.582031 75.425781 -25.992188 75.46875 -33.984375 C 75.507812 -41.984375 75.53125 -49.898438 75.53125 -57.734375 C 75.53125 -58.140625 75.382812 -58.363281 75.09375 -58.40625 C 74.8125 -58.445312 74.585938 -58.265625 74.421875 -57.859375 C 73.679688 -55.628906 72.671875 -52.742188 71.390625 -49.203125 C 70.117188 -45.660156 68.738281 -41.785156 67.25 -37.578125 C 65.769531 -33.378906 64.285156 -29.195312 62.796875 -25.03125 C 61.316406 -20.875 59.957031 -17.039062 58.71875 -13.53125 C 57.488281 -10.03125 56.476562 -7.1875 55.6875 -5 C 54.90625 -2.820312 54.472656 -1.648438 54.390625 -1.484375 C 53.734375 -0.160156 52.703125 0.5 51.296875 0.5 C 50.804688 0.582031 50.289062 0.640625 49.75 0.671875 C 49.21875 0.710938 48.707031 0.695312 48.21875 0.625 C 46.8125 0.375 45.863281 -0.410156 45.375 -1.734375 Z M 45.375 -1.734375 "/></g></g></g><g fill="#FFF" fill-opacity="1"><g transform="translate(108.40911, 487.707437)"><g><path d="M 2.46875 -2.46875 L 2.96875 -8.15625 C 2.96875 -8.570312 3.148438 -8.941406 3.515625 -9.265625 C 3.890625 -9.597656 4.285156 -9.765625 4.703125 -9.765625 L 6.671875 -9.765625 C 7.171875 -9.765625 7.601562 -9.945312 7.96875 -10.3125 C 8.34375 -10.6875 8.53125 -11.125 8.53125 -11.625 L 8.53125 -57.109375 C 8.53125 -58.265625 7.953125 -58.84375 6.796875 -58.84375 L 5.0625 -58.96875 C 3.914062 -58.96875 3.34375 -59.546875 3.34375 -60.703125 L 3.09375 -66.390625 C 3.09375 -67.617188 3.671875 -68.234375 4.828125 -68.234375 L 19.03125 -68.234375 C 20.269531 -68.234375 20.890625 -67.660156 20.890625 -66.515625 L 21.875 -11.625 C 22.039062 -10.46875 22.660156 -9.890625 23.734375 -9.890625 L 25.21875 -9.765625 C 25.632812 -9.765625 26.023438 -9.597656 26.390625 -9.265625 C 26.765625 -8.941406 26.953125 -8.53125 26.953125 -8.03125 L 27.078125 -2.34375 C 27.078125 -1.113281 26.457031 -0.5 25.21875 -0.5 L 6.3125 -0.5 C 5.726562 -0.5 4.941406 -0.679688 3.953125 -1.046875 C 2.960938 -1.421875 2.46875 -1.894531 2.46875 -2.46875 Z M 20.765625 -81.34375 C 20.679688 -79.53125 19.710938 -78.332031 17.859375 -77.75 C 16.003906 -77.175781 13.96875 -76.929688 11.75 -77.015625 C 9.4375 -77.179688 7.828125 -77.71875 6.921875 -78.625 C 6.015625 -79.53125 5.476562 -81.015625 5.3125 -83.078125 C 5.226562 -85.878906 5.863281 -87.832031 7.21875 -88.9375 C 8.582031 -90.050781 10.789062 -90.570312 13.84375 -90.5 C 15.988281 -90.414062 17.554688 -90 18.546875 -89.25 C 19.535156 -88.507812 20.171875 -87.625 20.453125 -86.59375 C 20.742188 -85.5625 20.867188 -84.550781 20.828125 -83.5625 C 20.785156 -82.582031 20.765625 -81.84375 20.765625 -81.34375 Z M 20.765625 -81.34375 "/></g></g></g><g fill="#FFF" fill-opacity="1"><g transform="translate(137.954292, 487.707437)"><g><path d="M 5.6875 -9.03125 L 7.90625 -9.515625 C 9.226562 -9.847656 9.890625 -10.671875 9.890625 -11.984375 L 9.390625 -79.125 C 9.390625 -80.601562 8.609375 -81.425781 7.046875 -81.59375 C 5.566406 -81.757812 4.828125 -82.539062 4.828125 -83.9375 L 4.453125 -88.015625 C 4.367188 -88.765625 4.59375 -89.40625 5.125 -89.9375 C 5.664062 -90.46875 6.265625 -90.734375 6.921875 -90.734375 L 20.15625 -90.859375 C 20.8125 -90.859375 21.40625 -90.609375 21.9375 -90.109375 C 22.476562 -89.617188 22.75 -89.046875 22.75 -88.390625 L 22.75 -70.59375 L 23.234375 -11.375 C 23.234375 -10.800781 23.457031 -10.265625 23.90625 -9.765625 C 24.363281 -9.273438 24.925781 -8.988281 25.59375 -8.90625 L 27.5625 -8.78125 C 28.226562 -8.78125 28.785156 -8.53125 29.234375 -8.03125 C 29.691406 -7.539062 29.921875 -6.96875 29.921875 -6.3125 L 29.921875 -2.109375 C 29.921875 -1.441406 29.671875 -0.859375 29.171875 -0.359375 C 28.679688 0.128906 28.101562 0.375 27.4375 0.375 L 6.3125 0.25 C 5.644531 0.25 5.0625 0.0234375 4.5625 -0.421875 C 4.070312 -0.878906 3.828125 -1.476562 3.828125 -2.21875 L 3.828125 -6.546875 C 3.742188 -7.128906 3.890625 -7.664062 4.265625 -8.15625 C 4.640625 -8.65625 5.113281 -8.945312 5.6875 -9.03125 Z M 5.6875 -9.03125 "/></g></g></g><g fill="#FFF" fill-opacity="1"><g transform="translate(171.578939, 487.707437)"><g><path d="M 10.75 -79.375 C 10.75 -80.113281 10.992188 -80.75 11.484375 -81.28125 C 11.984375 -81.820312 12.644531 -82.09375 13.46875 -82.09375 L 20.640625 -82.09375 C 22.367188 -81.925781 23.234375 -81.019531 23.234375 -79.375 L 23.125 -70.46875 C 23.125 -69.726562 23.390625 -69.085938 23.921875 -68.546875 C 24.453125 -68.015625 25.050781 -67.75 25.71875 -67.75 L 32.640625 -67.75 C 34.367188 -67.582031 35.234375 -66.675781 35.234375 -65.03125 L 35.109375 -61.078125 C 35.191406 -60.410156 34.960938 -59.804688 34.421875 -59.265625 C 33.890625 -58.734375 33.253906 -58.46875 32.515625 -58.46875 L 26.078125 -58.34375 C 25.335938 -58.34375 24.695312 -58.078125 24.15625 -57.546875 C 23.625 -57.015625 23.359375 -56.414062 23.359375 -55.75 C 23.359375 -53.9375 23.359375 -51.421875 23.359375 -48.203125 C 23.359375 -44.992188 23.378906 -41.515625 23.421875 -37.765625 C 23.460938 -34.015625 23.503906 -30.410156 23.546875 -26.953125 C 23.585938 -23.492188 23.628906 -20.546875 23.671875 -18.109375 C 23.710938 -15.679688 23.773438 -14.21875 23.859375 -13.71875 C 24.109375 -11.65625 25.097656 -10.359375 26.828125 -9.828125 C 28.554688 -9.296875 30.695312 -9.316406 33.25 -9.890625 C 33.914062 -10.054688 34.554688 -9.953125 35.171875 -9.578125 C 35.785156 -9.210938 36.175781 -8.695312 36.34375 -8.03125 C 36.507812 -7.375 36.710938 -6.613281 36.953125 -5.75 C 37.203125 -4.882812 37.453125 -4.082031 37.703125 -3.34375 C 37.953125 -2.519531 37.867188 -1.710938 37.453125 -0.921875 C 37.046875 -0.140625 36.390625 0.375 35.484375 0.625 C 32.765625 1.28125 30.003906 1.726562 27.203125 1.96875 C 24.398438 2.21875 21.882812 2.113281 19.65625 1.65625 C 17.425781 1.207031 15.816406 0.285156 14.828125 -1.109375 C 13.179688 -3.503906 12.234375 -5.648438 11.984375 -7.546875 C 11.742188 -9.441406 11.539062 -11.789062 11.375 -14.59375 C 11.375 -15 11.351562 -16.375 11.3125 -18.71875 C 11.269531 -21.070312 11.25 -23.957031 11.25 -27.375 C 11.25 -30.800781 11.25 -34.367188 11.25 -38.078125 C 11.25 -41.785156 11.226562 -45.222656 11.1875 -48.390625 C 11.144531 -51.566406 11.125 -54.0625 11.125 -55.875 C 11.125 -56.539062 10.875 -57.140625 10.375 -57.671875 C 9.882812 -58.203125 9.3125 -58.46875 8.65625 -58.46875 L 5.1875 -58.59375 C 4.53125 -58.59375 3.929688 -58.835938 3.390625 -59.328125 C 2.859375 -59.828125 2.59375 -60.445312 2.59375 -61.1875 L 2.46875 -65.03125 C 2.46875 -65.769531 2.734375 -66.40625 3.265625 -66.9375 C 3.804688 -67.476562 4.445312 -67.75 5.1875 -67.75 L 8.15625 -67.75 C 8.894531 -67.75 9.53125 -68.015625 10.0625 -68.546875 C 10.601562 -69.085938 10.875 -69.726562 10.875 -70.46875 Z M 10.75 -79.375 "/></g></g></g><g fill="#FFF" fill-opacity="1"><g transform="translate(213.238866, 487.707437)"><g><path d="M 52.421875 -23.859375 C 51.597656 -16.523438 49.660156 -10.816406 46.609375 -6.734375 C 43.554688 -2.660156 39.882812 -0.0859375 35.59375 0.984375 C 31.3125 2.054688 26.820312 1.851562 22.125 0.375 C 18.582031 -0.78125 15.59375 -2.898438 13.15625 -5.984375 C 10.726562 -9.078125 8.832031 -12.742188 7.46875 -16.984375 C 6.113281 -21.234375 5.3125 -25.726562 5.0625 -30.46875 C 4.820312 -35.207031 5.132812 -39.863281 6 -44.4375 C 6.863281 -49.007812 8.300781 -53.171875 10.3125 -56.921875 C 12.332031 -60.671875 14.910156 -63.660156 18.046875 -65.890625 C 21.179688 -68.117188 24.890625 -69.234375 29.171875 -69.234375 C 33.703125 -69.234375 37.472656 -68.179688 40.484375 -66.078125 C 43.492188 -63.972656 45.882812 -61.210938 47.65625 -57.796875 C 49.425781 -54.378906 50.703125 -50.648438 51.484375 -46.609375 C 52.273438 -42.566406 52.726562 -38.546875 52.84375 -34.546875 C 52.96875 -30.554688 52.828125 -26.992188 52.421875 -23.859375 Z M 28.796875 -8.53125 C 33.578125 -8.53125 36.789062 -10.960938 38.4375 -15.828125 C 40.09375 -20.691406 40.921875 -27.738281 40.921875 -36.96875 C 40.921875 -42.488281 40.320312 -46.851562 39.125 -50.0625 C 37.925781 -53.28125 36.398438 -55.585938 34.546875 -56.984375 C 32.691406 -58.390625 30.773438 -59.09375 28.796875 -59.09375 C 26.328125 -59.09375 24.164062 -58 22.3125 -55.8125 C 20.457031 -53.632812 19.035156 -50.875 18.046875 -47.53125 C 17.054688 -44.195312 16.5625 -40.71875 16.5625 -37.09375 C 16.5625 -33.957031 16.785156 -30.71875 17.234375 -27.375 C 17.691406 -24.039062 18.414062 -20.953125 19.40625 -18.109375 C 20.394531 -15.265625 21.648438 -12.957031 23.171875 -11.1875 C 24.703125 -9.414062 26.578125 -8.53125 28.796875 -8.53125 Z M 28.796875 -8.53125 "/></g></g></g><g fill="#FFF" fill-opacity="1"><g transform="translate(271.093037, 487.707437)"><g><path d="M 52.671875 -51.0625 C 52.671875 -49.90625 52.707031 -48.066406 52.78125 -45.546875 C 52.863281 -43.035156 52.925781 -40.171875 52.96875 -36.953125 C 53.007812 -33.742188 53.070312 -30.46875 53.15625 -27.125 C 53.238281 -23.789062 53.300781 -20.742188 53.34375 -17.984375 C 53.382812 -15.222656 53.445312 -13.019531 53.53125 -11.375 C 53.53125 -9.882812 54.3125 -9.140625 55.875 -9.140625 L 57.359375 -9.03125 C 58.015625 -9.03125 58.550781 -8.820312 58.96875 -8.40625 C 59.382812 -7.988281 59.59375 -7.453125 59.59375 -6.796875 L 59.703125 -2.34375 C 59.703125 -1.6875 59.472656 -1.128906 59.015625 -0.671875 C 58.566406 -0.222656 58.015625 0 57.359375 0 L 37.578125 0 C 37.003906 0 36.46875 -0.222656 35.96875 -0.671875 C 35.476562 -1.128906 35.234375 -1.6875 35.234375 -2.34375 L 35.234375 -6.796875 C 35.234375 -7.453125 35.457031 -8.003906 35.90625 -8.453125 C 36.363281 -8.910156 36.921875 -9.140625 37.578125 -9.140625 L 38.328125 -9.140625 C 38.984375 -9.140625 39.535156 -9.367188 39.984375 -9.828125 C 40.441406 -10.285156 40.671875 -10.84375 40.671875 -11.5 L 39.9375 -51.796875 C 39.851562 -54.597656 38.84375 -56.578125 36.90625 -57.734375 C 34.96875 -58.890625 32.71875 -59.34375 30.15625 -59.09375 C 27.601562 -58.84375 25.257812 -58.019531 23.125 -56.625 C 22.457031 -56.207031 22.125 -55.585938 22.125 -54.765625 L 22.125 -11.375 C 22.125 -9.882812 22.910156 -9.140625 24.484375 -9.140625 L 26.078125 -9.03125 C 27.648438 -9.03125 28.4375 -8.242188 28.4375 -6.671875 L 28.4375 -2.34375 C 28.4375 -1.6875 28.207031 -1.128906 27.75 -0.671875 C 27.300781 -0.222656 26.742188 0 26.078125 0 L 6.921875 0 C 6.347656 0 5.8125 -0.222656 5.3125 -0.671875 C 4.820312 -1.128906 4.578125 -1.6875 4.578125 -2.34375 L 4.703125 -6.796875 C 4.703125 -7.453125 4.925781 -7.988281 5.375 -8.40625 C 5.832031 -8.820312 6.347656 -9.03125 6.921875 -9.03125 L 7.546875 -9.03125 C 8.203125 -9.03125 8.753906 -9.273438 9.203125 -9.765625 C 9.660156 -10.265625 9.890625 -10.800781 9.890625 -11.375 L 9.515625 -56 C 9.515625 -56.738281 9.265625 -57.351562 8.765625 -57.84375 C 8.273438 -58.34375 7.703125 -58.632812 7.046875 -58.71875 L 6.3125 -58.71875 C 5.644531 -58.800781 5.039062 -59.085938 4.5 -59.578125 C 3.96875 -60.078125 3.703125 -60.695312 3.703125 -61.4375 L 3.703125 -65.03125 C 3.703125 -65.851562 3.96875 -66.507812 4.5 -67 C 5.039062 -67.5 5.679688 -67.75 6.421875 -67.75 L 18.796875 -67.75 C 19.617188 -67.75 20.316406 -67.457031 20.890625 -66.875 C 21.472656 -66.300781 21.800781 -65.601562 21.875 -64.78125 L 21.875 -64.03125 C 21.875 -63.707031 22.039062 -63.628906 22.375 -63.796875 C 24.019531 -65.523438 25.664062 -66.695312 27.3125 -67.3125 C 28.96875 -67.925781 30.945312 -68.234375 33.25 -68.234375 C 37.375 -68.234375 40.710938 -67.632812 43.265625 -66.4375 C 45.816406 -65.25 47.753906 -63.75 49.078125 -61.9375 C 50.398438 -60.125 51.304688 -58.25 51.796875 -56.3125 C 52.296875 -54.375 52.585938 -52.625 52.671875 -51.0625 Z M 52.671875 -51.0625 "/></g></g></g><g fill="#FFF" fill-opacity="1"><g transform="translate(334.510113, 487.707437)"><g/></g></g><g fill="#FFF" fill-opacity="1"><g transform="translate(359.234099, 487.707437)"><g><path d="M 45.375 -1.734375 L 24.59375 -58.234375 C 24.519531 -58.472656 24.359375 -58.570312 24.109375 -58.53125 C 23.859375 -58.488281 23.734375 -58.304688 23.734375 -57.984375 C 23.648438 -53.523438 23.628906 -48.597656 23.671875 -43.203125 C 23.710938 -37.804688 23.773438 -32.410156 23.859375 -27.015625 C 23.941406 -21.617188 23.898438 -16.648438 23.734375 -12.109375 C 23.734375 -11.367188 24 -10.75 24.53125 -10.25 C 25.070312 -9.757812 25.671875 -9.472656 26.328125 -9.390625 C 27.398438 -9.390625 28.265625 -9.1875 28.921875 -8.78125 C 29.503906 -8.445312 29.816406 -7.722656 29.859375 -6.609375 C 29.898438 -5.492188 29.878906 -4.363281 29.796875 -3.21875 C 29.710938 -2.394531 29.359375 -1.648438 28.734375 -0.984375 C 28.117188 -0.328125 27.359375 0 26.453125 0 C 23.734375 0.0820312 20.582031 0.125 17 0.125 C 13.414062 0.125 10.425781 0.164062 8.03125 0.25 C 7.289062 0.25 6.648438 0.00390625 6.109375 -0.484375 C 5.578125 -0.984375 5.269531 -1.601562 5.1875 -2.34375 C 5.101562 -3.007812 5.039062 -3.648438 5 -4.265625 C 4.957031 -4.878906 4.9375 -5.476562 4.9375 -6.0625 C 4.9375 -6.96875 5.265625 -7.707031 5.921875 -8.28125 C 6.585938 -8.851562 7.332031 -9.179688 8.15625 -9.265625 L 9.140625 -9.265625 C 9.804688 -9.265625 10.382812 -9.507812 10.875 -10 C 11.375 -10.5 11.625 -11.082031 11.625 -11.75 C 11.707031 -15.289062 11.75 -19.328125 11.75 -23.859375 C 11.75 -28.390625 11.75 -33.085938 11.75 -37.953125 C 11.75 -42.816406 11.75 -47.554688 11.75 -52.171875 C 11.75 -56.785156 11.75 -60.96875 11.75 -64.71875 C 11.75 -68.46875 11.75 -71.414062 11.75 -73.5625 C 11.832031 -74.21875 11.625 -74.789062 11.125 -75.28125 C 10.632812 -75.78125 10.054688 -76.03125 9.390625 -76.03125 C 9.222656 -76.03125 9.035156 -76.050781 8.828125 -76.09375 C 8.628906 -76.132812 8.40625 -76.15625 8.15625 -76.15625 C 7.332031 -76.15625 6.609375 -76.460938 5.984375 -77.078125 C 5.367188 -77.691406 5.0625 -78.414062 5.0625 -79.25 C 4.976562 -79.90625 4.9375 -80.726562 4.9375 -81.71875 C 4.9375 -82.707031 4.9375 -83.488281 4.9375 -84.0625 C 4.9375 -85.550781 5.722656 -86.375 7.296875 -86.53125 C 9.929688 -86.695312 12.894531 -86.738281 16.1875 -86.65625 C 19.488281 -86.570312 22.171875 -86.488281 24.234375 -86.40625 C 25.222656 -86.40625 25.921875 -85.914062 26.328125 -84.9375 C 28.804688 -78.914062 31.300781 -72.316406 33.8125 -65.140625 C 36.320312 -57.972656 38.832031 -50.804688 41.34375 -43.640625 C 43.863281 -36.472656 46.316406 -29.921875 48.703125 -23.984375 C 48.785156 -23.898438 48.828125 -23.835938 48.828125 -23.796875 C 48.828125 -23.753906 48.828125 -23.734375 48.828125 -23.734375 C 49.078125 -23.242188 49.445312 -23 49.9375 -23 C 50.4375 -23 50.769531 -23.242188 50.9375 -23.734375 C 54.894531 -33.785156 58.664062 -44.085938 62.25 -54.640625 C 65.832031 -65.191406 69.519531 -75.328125 73.3125 -85.046875 C 73.71875 -86.117188 74.457031 -86.65625 75.53125 -86.65625 C 75.863281 -86.65625 76.75 -86.65625 78.1875 -86.65625 C 79.632812 -86.65625 81.304688 -86.65625 83.203125 -86.65625 C 85.097656 -86.65625 86.890625 -86.65625 88.578125 -86.65625 C 90.265625 -86.65625 91.476562 -86.65625 92.21875 -86.65625 C 94.113281 -86.65625 95.0625 -85.832031 95.0625 -84.1875 C 95.0625 -83.613281 95.082031 -82.726562 95.125 -81.53125 C 95.164062 -80.332031 95.1875 -79.445312 95.1875 -78.875 C 95.1875 -78.132812 94.9375 -77.492188 94.4375 -76.953125 C 93.945312 -76.421875 93.289062 -76.113281 92.46875 -76.03125 C 92.0625 -76.03125 91.648438 -76.007812 91.234375 -75.96875 C 90.816406 -75.925781 90.40625 -75.90625 90 -75.90625 C 89.34375 -75.988281 88.742188 -75.78125 88.203125 -75.28125 C 87.671875 -74.789062 87.445312 -74.21875 87.53125 -73.5625 C 87.613281 -66.46875 87.675781 -59.519531 87.71875 -52.71875 C 87.757812 -45.925781 87.78125 -39.359375 87.78125 -33.015625 C 87.78125 -30.453125 87.78125 -27.953125 87.78125 -25.515625 C 87.78125 -23.085938 87.816406 -20.554688 87.890625 -17.921875 C 87.890625 -17.597656 87.867188 -16.796875 87.828125 -15.515625 C 87.796875 -14.234375 87.816406 -13.019531 87.890625 -11.875 C 87.890625 -11.207031 88.132812 -10.625 88.625 -10.125 C 89.125 -9.632812 89.664062 -9.390625 90.25 -9.390625 C 90.570312 -9.304688 91.023438 -9.265625 91.609375 -9.265625 C 93.171875 -9.109375 93.953125 -8.242188 93.953125 -6.671875 L 93.953125 -3.34375 C 93.867188 -2.4375 93.5 -1.648438 92.84375 -0.984375 C 92.1875 -0.328125 91.40625 0 90.5 0 L 72.9375 0 C 72.113281 0.0820312 71.410156 -0.160156 70.828125 -0.734375 C 70.253906 -1.316406 69.925781 -2.019531 69.84375 -2.84375 C 69.757812 -3.664062 69.71875 -4.445312 69.71875 -5.1875 C 69.71875 -5.9375 69.71875 -6.390625 69.71875 -6.546875 C 69.71875 -7.296875 69.984375 -7.9375 70.515625 -8.46875 C 71.054688 -9 71.695312 -9.222656 72.4375 -9.140625 L 72.6875 -9.140625 C 73.425781 -9.066406 74.082031 -9.296875 74.65625 -9.828125 C 75.238281 -10.359375 75.53125 -11 75.53125 -11.75 C 75.445312 -18.582031 75.425781 -25.992188 75.46875 -33.984375 C 75.507812 -41.984375 75.53125 -49.898438 75.53125 -57.734375 C 75.53125 -58.140625 75.382812 -58.363281 75.09375 -58.40625 C 74.8125 -58.445312 74.585938 -58.265625 74.421875 -57.859375 C 73.679688 -55.628906 72.671875 -52.742188 71.390625 -49.203125 C 70.117188 -45.660156 68.738281 -41.785156 67.25 -37.578125 C 65.769531 -33.378906 64.285156 -29.195312 62.796875 -25.03125 C 61.316406 -20.875 59.957031 -17.039062 58.71875 -13.53125 C 57.488281 -10.03125 56.476562 -7.1875 55.6875 -5 C 54.90625 -2.820312 54.472656 -1.648438 54.390625 -1.484375 C 53.734375 -0.160156 52.703125 0.5 51.296875 0.5 C 50.804688 0.582031 50.289062 0.640625 49.75 0.671875 C 49.21875 0.710938 48.707031 0.695312 48.21875 0.625 C 46.8125 0.375 45.863281 -0.410156 45.375 -1.734375 Z M 45.375 -1.734375 "/></g></g></g><g fill="#FFF" fill-opacity="1"><g transform="translate(459.366282, 487.707437)"><g><path d="M 49.328125 -9.140625 L 50.9375 -9.140625 C 51.925781 -9.140625 52.601562 -8.8125 52.96875 -8.15625 C 53.34375 -7.5 53.53125 -6.757812 53.53125 -5.9375 L 53.53125 -2.71875 C 53.53125 -1.644531 53.175781 -0.921875 52.46875 -0.546875 C 51.769531 -0.179688 51.050781 0 50.3125 0 L 39.8125 0 C 38.90625 0 38.140625 -0.328125 37.515625 -0.984375 C 36.898438 -1.648438 36.550781 -2.394531 36.46875 -3.21875 C 36.382812 -3.875 36.320312 -4.445312 36.28125 -4.9375 C 36.238281 -5.4375 36.21875 -5.851562 36.21875 -6.1875 L 36.21875 -7.171875 C 36.132812 -7.421875 36.03125 -7.546875 35.90625 -7.546875 C 35.789062 -7.546875 35.648438 -7.421875 35.484375 -7.171875 C 34.660156 -5.679688 33.671875 -4.320312 32.515625 -3.09375 C 31.609375 -2.101562 30.410156 -1.335938 28.921875 -0.796875 C 27.441406 -0.265625 26 0.101562 24.59375 0.3125 C 23.195312 0.519531 22.046875 0.625 21.140625 0.625 C 19.898438 0.625 18.828125 0.625 17.921875 0.625 C 17.015625 0.625 15.984375 0.414062 14.828125 0 C 14.335938 -0.164062 13.863281 -0.367188 13.40625 -0.609375 C 12.957031 -0.859375 12.484375 -1.148438 11.984375 -1.484375 C 11.660156 -1.648438 11.207031 -2 10.625 -2.53125 C 10.050781 -3.070312 9.679688 -3.421875 9.515625 -3.578125 C 7.867188 -5.234375 6.675781 -7.359375 5.9375 -9.953125 C 5.195312 -12.546875 4.90625 -15.285156 5.0625 -18.171875 C 5.226562 -21.054688 5.765625 -23.65625 6.671875 -25.96875 C 8.484375 -30.5 11.117188 -33.769531 14.578125 -35.78125 C 18.046875 -37.800781 22.332031 -38.851562 27.4375 -38.9375 C 28.84375 -38.9375 30.039062 -38.9375 31.03125 -38.9375 C 32.019531 -38.9375 32.800781 -38.894531 33.375 -38.8125 C 33.875 -38.726562 34.304688 -38.875 34.671875 -39.25 C 35.046875 -39.625 35.234375 -40.054688 35.234375 -40.546875 C 35.316406 -41.617188 35.335938 -42.976562 35.296875 -44.625 C 35.253906 -46.269531 35.109375 -47.753906 34.859375 -49.078125 C 34.535156 -51.710938 33.859375 -53.851562 32.828125 -55.5 C 31.796875 -57.15625 29.710938 -58.023438 26.578125 -58.109375 C 24.191406 -58.191406 22.335938 -57.835938 21.015625 -57.046875 C 19.691406 -56.265625 18.742188 -55.421875 18.171875 -54.515625 C 17.597656 -53.609375 17.1875 -52.992188 16.9375 -52.671875 C 16.851562 -52.503906 16.769531 -51.90625 16.6875 -50.875 C 16.601562 -49.84375 16.5625 -49.160156 16.5625 -48.828125 C 16.5625 -47.347656 15.863281 -46.609375 14.46875 -46.609375 C 14.382812 -46.609375 13.890625 -46.609375 12.984375 -46.609375 C 12.078125 -46.609375 11.148438 -46.609375 10.203125 -46.609375 C 9.253906 -46.609375 8.695312 -46.609375 8.53125 -46.609375 C 7.875 -46.609375 7.296875 -46.789062 6.796875 -47.15625 C 6.304688 -47.53125 6.101562 -48.171875 6.1875 -49.078125 C 6.1875 -49.160156 6.164062 -49.941406 6.125 -51.421875 C 6.082031 -52.910156 6.0625 -54.023438 6.0625 -54.765625 C 6.144531 -54.929688 6.207031 -55.132812 6.25 -55.375 C 6.289062 -55.625 6.347656 -55.832031 6.421875 -56 C 6.835938 -56.820312 7.722656 -58.117188 9.078125 -59.890625 C 10.441406 -61.660156 12.523438 -63.304688 15.328125 -64.828125 C 18.128906 -66.359375 21.796875 -67.164062 26.328125 -67.25 C 30.117188 -67.332031 33.125 -66.859375 35.34375 -65.828125 C 37.570312 -64.796875 39.367188 -63.4375 40.734375 -61.75 C 42.097656 -60.0625 43.351562 -58.1875 44.5 -56.125 C 45.40625 -54.5625 46.046875 -52.769531 46.421875 -50.75 C 46.796875 -48.726562 47.019531 -46.601562 47.09375 -44.375 C 47.175781 -43.3125 47.238281 -41.539062 47.28125 -39.0625 C 47.320312 -36.59375 47.363281 -33.851562 47.40625 -30.84375 C 47.445312 -27.832031 47.488281 -24.90625 47.53125 -22.0625 C 47.570312 -19.21875 47.613281 -16.847656 47.65625 -14.953125 C 47.695312 -13.054688 47.71875 -12.066406 47.71875 -11.984375 C 47.71875 -10.085938 48.253906 -9.140625 49.328125 -9.140625 Z M 22.125 -10.390625 C 23.769531 -10.222656 25.601562 -10.488281 27.625 -11.1875 C 29.644531 -11.882812 31.4375 -12.890625 33 -14.203125 C 34.570312 -15.523438 35.398438 -16.929688 35.484375 -18.421875 C 35.566406 -19.492188 35.585938 -21 35.546875 -22.9375 C 35.503906 -24.875 35.441406 -26.539062 35.359375 -27.9375 C 35.359375 -28.925781 34.820312 -29.503906 33.75 -29.671875 C 32.101562 -29.753906 30.207031 -29.773438 28.0625 -29.734375 C 25.914062 -29.691406 24.0625 -29.460938 22.5 -29.046875 C 20.269531 -28.472656 18.722656 -27.546875 17.859375 -26.265625 C 16.992188 -24.992188 16.5 -23.613281 16.375 -22.125 C 16.25 -20.644531 16.1875 -19.203125 16.1875 -17.796875 C 16.1875 -13.515625 18.164062 -11.046875 22.125 -10.390625 Z M 22.125 -10.390625 "/></g></g></g><g fill="#FFF" fill-opacity="1"><g transform="translate(516.602367, 487.707437)"><g><path d="M 7.546875 -9.03125 L 8.53125 -9.140625 C 9.1875 -9.140625 9.757812 -9.40625 10.25 -9.9375 C 10.75 -10.476562 11 -11.082031 11 -11.75 L 10.515625 -79.125 C 10.515625 -80.03125 10.285156 -80.664062 9.828125 -81.03125 C 9.367188 -81.40625 8.8125 -81.632812 8.15625 -81.71875 C 7.5 -81.800781 6.921875 -82.085938 6.421875 -82.578125 C 5.929688 -83.078125 5.6875 -83.65625 5.6875 -84.3125 L 5.5625 -88.140625 C 5.5625 -88.878906 5.804688 -89.515625 6.296875 -90.046875 C 6.796875 -90.585938 7.414062 -90.859375 8.15625 -90.859375 L 20.515625 -90.984375 C 21.179688 -90.984375 21.78125 -90.734375 22.3125 -90.234375 C 22.851562 -89.742188 23.125 -89.128906 23.125 -88.390625 L 23.125 -70.84375 L 23.359375 -11.75 C 23.359375 -11 23.601562 -10.375 24.09375 -9.875 C 24.59375 -9.382812 25.21875 -9.140625 25.96875 -9.140625 L 26.828125 -9.140625 C 27.484375 -9.066406 28.078125 -8.78125 28.609375 -8.28125 C 29.148438 -7.789062 29.421875 -7.210938 29.421875 -6.546875 L 29.421875 -2.84375 C 29.421875 -2.101562 29.171875 -1.484375 28.671875 -0.984375 C 28.179688 -0.492188 27.566406 -0.25 26.828125 -0.25 L 7.671875 -0.125 C 7.003906 -0.125 6.398438 -0.367188 5.859375 -0.859375 C 5.328125 -1.359375 5.0625 -1.976562 5.0625 -2.71875 L 4.9375 -6.421875 C 4.9375 -7.085938 5.179688 -7.6875 5.671875 -8.21875 C 6.171875 -8.757812 6.796875 -9.03125 7.546875 -9.03125 Z M 57.859375 -9.765625 C 58.109375 -9.347656 58.476562 -9.140625 58.96875 -9.140625 L 61.5625 -9.03125 C 62.144531 -9.03125 62.640625 -8.820312 63.046875 -8.40625 C 63.460938 -7.988281 63.671875 -7.453125 63.671875 -6.796875 L 63.796875 -2.84375 C 63.796875 -2.019531 63.523438 -1.316406 62.984375 -0.734375 C 62.453125 -0.160156 61.773438 0.125 60.953125 0.125 L 42.15625 0 C 41.582031 0 41.046875 -0.222656 40.546875 -0.671875 C 40.054688 -1.128906 39.8125 -1.6875 39.8125 -2.34375 L 39.5625 -6.3125 C 39.5625 -7.050781 39.804688 -7.6875 40.296875 -8.21875 C 40.796875 -8.757812 41.375 -9.03125 42.03125 -9.03125 L 42.65625 -9.140625 C 43.5625 -9.066406 44.15625 -9.171875 44.4375 -9.453125 C 44.726562 -9.742188 44.503906 -10.382812 43.765625 -11.375 L 26.828125 -35.484375 C 26.492188 -35.972656 26.453125 -36.507812 26.703125 -37.09375 L 39.1875 -56.25 C 39.601562 -56.820312 39.992188 -57.351562 40.359375 -57.84375 C 40.734375 -58.34375 40.550781 -58.632812 39.8125 -58.71875 L 37.953125 -58.71875 C 36.960938 -58.71875 36.46875 -59.171875 36.46875 -60.078125 L 36.46875 -66.140625 C 36.382812 -66.546875 36.503906 -66.894531 36.828125 -67.1875 C 37.160156 -67.476562 37.492188 -67.625 37.828125 -67.625 L 59.09375 -67.625 C 59.5 -67.625 59.847656 -67.476562 60.140625 -67.1875 C 60.429688 -66.894531 60.578125 -66.546875 60.578125 -66.140625 L 60.453125 -59.703125 C 60.453125 -58.796875 60 -58.34375 59.09375 -58.34375 L 54.140625 -58.234375 C 53.648438 -58.234375 53.28125 -58.023438 53.03125 -57.609375 L 39.9375 -37.703125 C 39.101562 -36.796875 39.0625 -35.765625 39.8125 -34.609375 Z M 57.859375 -9.765625 "/></g></g></g><g fill="#FFF" fill-opacity="1"><g transform="translate(582.862691, 487.707437)"><g><path d="M 40.296875 -21.765625 C 41.117188 -21.835938 41.984375 -21.894531 42.890625 -21.9375 C 43.796875 -21.976562 44.664062 -21.957031 45.5 -21.875 C 46.238281 -21.875 46.875 -21.609375 47.40625 -21.078125 C 47.945312 -20.546875 48.21875 -19.90625 48.21875 -19.15625 C 48.132812 -18.25 48.113281 -17.425781 48.15625 -16.6875 C 48.195312 -15.945312 48.21875 -15.125 48.21875 -14.21875 C 48.21875 -12.40625 47.515625 -10.488281 46.109375 -8.46875 C 44.710938 -6.445312 43.3125 -4.859375 41.90625 -3.703125 C 39.4375 -1.722656 36.84375 -0.488281 34.125 0 C 31.40625 0.488281 28.847656 0.585938 26.453125 0.296875 C 24.066406 0.015625 22.128906 -0.289062 20.640625 -0.625 C 16.765625 -1.53125 13.691406 -3.484375 11.421875 -6.484375 C 9.160156 -9.492188 7.535156 -13.117188 6.546875 -17.359375 C 5.554688 -21.609375 5.039062 -26 5 -30.53125 C 4.957031 -35.0625 5.203125 -39.367188 5.734375 -43.453125 C 6.273438 -47.535156 6.921875 -50.851562 7.671875 -53.40625 C 9.316406 -59.007812 11.828125 -63.046875 15.203125 -65.515625 C 18.585938 -67.992188 22.664062 -69.273438 27.4375 -69.359375 C 29.414062 -69.441406 31.640625 -69.023438 34.109375 -68.109375 C 36.585938 -67.203125 39 -65.535156 41.34375 -63.109375 C 43.695312 -60.679688 45.613281 -57.203125 47.09375 -52.671875 C 47.757812 -50.609375 48.234375 -47.863281 48.515625 -44.4375 C 48.804688 -41.019531 48.867188 -37.785156 48.703125 -34.734375 C 48.703125 -33.503906 48.269531 -32.472656 47.40625 -31.640625 C 46.539062 -30.816406 45.488281 -30.363281 44.25 -30.28125 C 42.28125 -30.28125 39.914062 -30.257812 37.15625 -30.21875 C 34.394531 -30.1875 31.671875 -30.148438 28.984375 -30.109375 C 26.304688 -30.066406 24.082031 -30.046875 22.3125 -30.046875 C 20.539062 -30.046875 19.65625 -30.046875 19.65625 -30.046875 C 18.09375 -29.878906 17.3125 -28.972656 17.3125 -27.328125 C 17.3125 -25.921875 17.453125 -24.207031 17.734375 -22.1875 C 18.023438 -20.164062 18.519531 -18.144531 19.21875 -16.125 C 19.925781 -14.113281 20.914062 -12.425781 22.1875 -11.0625 C 23.46875 -9.707031 25.054688 -9.03125 26.953125 -9.03125 C 30.078125 -8.945312 32.257812 -9.476562 33.5 -10.625 C 34.738281 -11.78125 35.6875 -13.0625 36.34375 -14.46875 C 36.507812 -14.789062 36.632812 -15.320312 36.71875 -16.0625 C 36.800781 -16.8125 36.882812 -17.597656 36.96875 -18.421875 C 37.132812 -20.484375 38.242188 -21.597656 40.296875 -21.765625 Z M 32.015625 -57.359375 C 30.203125 -58.515625 28.019531 -58.90625 25.46875 -58.53125 C 22.914062 -58.164062 20.976562 -56.703125 19.65625 -54.140625 C 19.082031 -52.828125 18.648438 -51.160156 18.359375 -49.140625 C 18.066406 -47.117188 17.835938 -45.078125 17.671875 -43.015625 C 17.597656 -42.191406 17.847656 -41.488281 18.421875 -40.90625 C 18.992188 -40.332031 19.691406 -40.046875 20.515625 -40.046875 L 33.875 -40.046875 C 34.863281 -40.046875 35.644531 -40.4375 36.21875 -41.21875 C 36.800781 -42.007812 37.007812 -42.941406 36.84375 -44.015625 C 36.84375 -45.410156 36.757812 -46.972656 36.59375 -48.703125 C 36.425781 -50.429688 36.015625 -52.078125 35.359375 -53.640625 C 34.703125 -55.210938 33.585938 -56.453125 32.015625 -57.359375 Z M 32.015625 -57.359375 "/></g></g></g><g fill="#FFF" fill-opacity="1"><g transform="translate(636.637398, 487.707437)"><g><path d="M 42.15625 -65.765625 C 41.988281 -64.453125 41.738281 -62.804688 41.40625 -60.828125 C 41.082031 -58.847656 40.710938 -57.035156 40.296875 -55.390625 C 40.210938 -54.890625 39.921875 -54.535156 39.421875 -54.328125 C 38.929688 -54.128906 38.484375 -54.148438 38.078125 -54.390625 C 35.929688 -55.710938 33.640625 -56.351562 31.203125 -56.3125 C 28.773438 -56.269531 26.492188 -55.546875 24.359375 -54.140625 C 23.941406 -53.734375 23.734375 -53.28125 23.734375 -52.78125 L 23.734375 -11.125 C 23.734375 -10.632812 23.914062 -10.179688 24.28125 -9.765625 C 24.65625 -9.347656 25.132812 -9.140625 25.71875 -9.140625 L 27.5625 -9.03125 C 28.882812 -9.03125 29.546875 -8.453125 29.546875 -7.296875 L 29.546875 -1.984375 C 29.628906 -1.398438 29.460938 -0.898438 29.046875 -0.484375 C 28.640625 -0.078125 28.144531 0.125 27.5625 0.125 L 8.15625 0.125 C 7.582031 0.125 7.109375 -0.078125 6.734375 -0.484375 C 6.367188 -0.898438 6.1875 -1.398438 6.1875 -1.984375 L 6.1875 -7.171875 C 6.1875 -8.410156 6.84375 -9.03125 8.15625 -9.03125 L 9.390625 -9.03125 C 10.710938 -9.03125 11.375 -9.726562 11.375 -11.125 L 11.125 -54.890625 C 11.125 -55.710938 10.832031 -56.410156 10.25 -56.984375 C 9.675781 -57.566406 8.976562 -57.859375 8.15625 -57.859375 L 7.78125 -57.859375 C 6.957031 -57.941406 6.273438 -58.269531 5.734375 -58.84375 C 5.203125 -59.414062 4.9375 -60.117188 4.9375 -60.953125 L 4.9375 -64.65625 C 4.9375 -65.5625 5.222656 -66.300781 5.796875 -66.875 C 6.378906 -67.457031 7.082031 -67.75 7.90625 -67.75 L 21.015625 -67.75 C 22.492188 -67.75 23.316406 -66.960938 23.484375 -65.390625 L 23.484375 -65.03125 C 23.484375 -64.445312 23.734375 -64.320312 24.234375 -64.65625 C 25.878906 -66.300781 27.628906 -67.429688 29.484375 -68.046875 C 31.335938 -68.671875 33.421875 -68.984375 35.734375 -68.984375 C 36.390625 -68.984375 37.210938 -68.835938 38.203125 -68.546875 C 39.191406 -68.265625 40.054688 -68 40.796875 -67.75 C 41.867188 -67.332031 42.320312 -66.671875 42.15625 -65.765625 Z M 42.15625 -65.765625 "/></g></g></g><g fill="#FFF" fill-opacity="1"><g transform="translate(678.915433, 487.707437)"><g><path d="M 48.953125 -21.265625 C 49.453125 -16.734375 49.164062 -13.066406 48.09375 -10.265625 C 47.019531 -7.460938 45.453125 -5.273438 43.390625 -3.703125 C 41.328125 -2.140625 38.9375 -0.90625 36.21875 0 C 33.75 0.90625 30.863281 1.484375 27.5625 1.734375 C 24.269531 1.984375 20.847656 1.59375 17.296875 0.5625 C 13.753906 -0.46875 10.296875 -2.382812 6.921875 -5.1875 C 5.597656 -6.257812 4.859375 -7.742188 4.703125 -9.640625 C 4.703125 -10.710938 4.703125 -11.785156 4.703125 -12.859375 C 4.703125 -13.929688 4.742188 -14.921875 4.828125 -15.828125 C 4.828125 -16.984375 5.238281 -17.929688 6.0625 -18.671875 C 6.882812 -19.410156 7.832031 -19.78125 8.90625 -19.78125 L 13.34375 -19.53125 C 14.332031 -19.53125 15.195312 -19.160156 15.9375 -18.421875 C 16.6875 -17.679688 17.101562 -16.816406 17.1875 -15.828125 C 17.1875 -15.492188 17.1875 -15.160156 17.1875 -14.828125 C 17.1875 -14.503906 17.226562 -14.175781 17.3125 -13.84375 C 17.3125 -12.6875 17.765625 -11.738281 18.671875 -11 C 19.984375 -9.757812 21.335938 -8.972656 22.734375 -8.640625 C 24.140625 -8.316406 25.75 -8.15625 27.5625 -8.15625 C 30.695312 -8.15625 32.921875 -8.8125 34.234375 -10.125 C 35.554688 -11.445312 36.132812 -14.128906 35.96875 -18.171875 C 35.882812 -19.898438 35.535156 -21.257812 34.921875 -22.25 C 34.304688 -23.238281 33.273438 -24.101562 31.828125 -24.84375 C 30.390625 -25.59375 28.351562 -26.457031 25.71875 -27.4375 C 22.914062 -28.59375 20.359375 -29.625 18.046875 -30.53125 C 15.742188 -31.4375 13.625 -32.691406 11.6875 -34.296875 C 9.75 -35.910156 7.914062 -38.203125 6.1875 -41.171875 C 4.125 -44.878906 3.335938 -48.503906 3.828125 -52.046875 C 4.328125 -55.585938 5.601562 -58.71875 7.65625 -61.4375 C 9.71875 -64.15625 12.03125 -66.050781 14.59375 -67.125 C 14.59375 -67.125 15.269531 -67.328125 16.625 -67.734375 C 17.988281 -68.148438 19.800781 -68.523438 22.0625 -68.859375 C 24.332031 -69.191406 26.804688 -69.210938 29.484375 -68.921875 C 32.160156 -68.628906 34.816406 -67.800781 37.453125 -66.4375 C 40.097656 -65.082031 42.488281 -62.960938 44.625 -60.078125 C 45.207031 -59.253906 45.578125 -58.304688 45.734375 -57.234375 C 45.734375 -56.578125 45.753906 -55.9375 45.796875 -55.3125 C 45.835938 -54.695312 45.859375 -54.0625 45.859375 -53.40625 C 45.941406 -52.082031 45.53125 -50.96875 44.625 -50.0625 C 43.71875 -49.15625 42.609375 -48.703125 41.296875 -48.703125 L 38.203125 -48.703125 C 37.046875 -48.785156 36.035156 -49.238281 35.171875 -50.0625 C 34.304688 -50.882812 33.832031 -51.914062 33.75 -53.15625 L 33.75 -54.03125 C 33.75 -54.769531 33.503906 -55.425781 33.015625 -56 C 31.691406 -57.8125 30.492188 -58.757812 29.421875 -58.84375 C 28.347656 -58.925781 26.820312 -58.96875 24.84375 -58.96875 C 22.789062 -58.96875 20.9375 -58.265625 19.28125 -56.859375 C 17.632812 -55.460938 16.539062 -53.710938 16 -51.609375 C 15.46875 -49.515625 15.738281 -47.4375 16.8125 -45.375 C 17.882812 -43.3125 19.117188 -41.804688 20.515625 -40.859375 C 21.921875 -39.910156 23.507812 -39.1875 25.28125 -38.6875 C 27.050781 -38.195312 28.96875 -37.625 31.03125 -36.96875 C 33.75 -36.0625 36.445312 -34.945312 39.125 -33.625 C 41.800781 -32.300781 44.046875 -30.648438 45.859375 -28.671875 C 47.671875 -26.703125 48.703125 -24.234375 48.953125 -21.265625 Z M 48.953125 -21.265625 "/></g></g></g></svg>